<svg width="455" height="409" viewBox="0 0 455 409" fill="none" xmlns="http://www.w3.org/2000/svg">
<path d="M212.299 108.35C217.41 108.35 221.552 104.208 221.552 99.0974C221.552 93.9875 217.41 89.8446 212.299 89.8446C207.189 89.8446 203.046 93.9875 203.046 99.0974C203.046 104.208 207.189 108.35 212.299 108.35Z" fill="#D7E8F0"/>
<path d="M236.273 107.528C241.383 107.528 245.526 103.385 245.526 98.2747C245.526 93.1642 241.383 89.0219 236.273 89.0219C231.163 89.0219 227.02 93.1642 227.02 98.2747C227.02 103.385 231.163 107.528 236.273 107.528Z" fill="#D7E8F0"/>
<path d="M54.8765 247.486C50.4264 243.435 46.3393 239.002 42.6605 234.239C31.0342 218.677 25.8156 199.25 28.0791 179.957C30.6139 159.111 42.3568 137.443 61.4899 127.802C81.9079 117.518 107.201 119.644 125.348 104.396C140.483 91.6419 145.811 70.9251 156.887 54.9243C166.349 41.2941 177.803 28.859 191.692 19.646C229.246 -5.25397 275.356 1.01087 315.052 17.3702C334.523 25.4029 349.319 35.6866 360.504 47.1307" stroke="#CCDDE2" stroke-width="5.55" stroke-miterlimit="10"/>
<path d="M374.204 64.2269C406.026 113.394 388.073 172.791 388.073 172.791" stroke="#CCDDE2" stroke-width="5.55" stroke-miterlimit="10"/>
<path d="M97.092 297.794C111.818 349.651 92.6648 371.573 92.6648 371.573" stroke="#CCDDE2" stroke-width="5.55" stroke-miterlimit="10"/>
<path d="M335.45 151.562C333.805 145.545 330.674 140.038 326.346 135.546C317.88 126.547 305.366 121.268 292.98 121.652C284.24 121.931 272.881 123.953 265.735 117.553C261.995 114.227 261.203 108.813 259.759 104.307C258.166 99.2175 256.837 94.0498 255.775 88.8238C254.829 83.8527 253.033 79.0814 250.466 74.7204C247.694 69.9994 243.771 66.0587 239.062 63.2664C230.217 58.1569 217.872 57.6838 208.983 62.9228C207.717 63.6807 206.518 64.5438 205.397 65.5024C205.135 65.7185 204.884 65.9476 204.645 66.1897C196.936 73.2961 193.221 84.785 193.415 95.0488C193.415 95.0488 193.415 95.6912 193.415 96.8067C193.415 97.4093 193.415 97.9471 193.415 98.4202C193.44 99.3415 193.46 100.457 193.44 101.682C193.848 107.713 194.815 133.694 183.625 147.608C189.058 145.914 194.581 144.391 200.138 143.126C200.153 143.131 200.169 143.131 200.183 143.126C200.761 142.802 206.303 139.864 210.019 141.134C210.723 141.371 211.359 141.777 211.871 142.316C212.383 142.855 212.756 143.511 212.957 144.226C212.957 144.266 212.957 144.291 213.002 144.311C213.046 144.485 213.111 144.674 213.151 144.869C213.191 145.05 213.242 145.23 213.3 145.407C213.767 146.84 214.41 148.21 215.213 149.485C215.321 149.685 215.451 149.872 215.601 150.043C216.389 151.08 217.314 152.005 218.35 152.792C217.962 152.408 217.553 151.975 217.125 151.547C215.694 150.126 214.606 148.397 213.943 146.493C213.28 144.589 213.061 142.558 213.3 140.556C213.3 140.556 214.227 141.672 216.114 140.596C218.001 139.52 215.148 130.227 214.441 127.454C214.182 126.423 215.706 126.552 218.071 127.135C216.347 125.959 214.774 124.574 213.39 123.011C212.426 121.946 211.55 120.803 210.77 119.595C207.374 114.316 206.089 110.258 205.402 105.233C203.814 103.462 202.978 101.142 203.071 98.7653C203.164 96.3884 204.179 94.1409 205.9 92.499C205.937 92.4442 205.98 92.3939 206.03 92.3496C207.1 90.9751 209.291 90.4572 210.711 89.4512C212.226 88.3118 213.568 86.9577 214.695 85.4324C216.004 83.7143 218.181 81.1844 217.982 78.8638C218.559 85.1535 224.012 89.3218 230.048 89.4911C231.504 89.4876 232.958 89.4094 234.406 89.257C234.406 89.257 234.406 89.257 234.45 89.257C235.064 89.1265 235.69 89.0613 236.318 89.0628C237.801 89.0598 239.264 89.4159 240.58 90.1001C241.896 90.7844 243.027 91.7764 243.878 92.992C243.964 93.1011 244.042 93.2161 244.112 93.3356C244.221 93.505 244.326 93.6992 244.435 93.8934C244.791 94.4322 245.086 95.0084 245.317 95.6115C246.691 99.1323 246.582 103.082 246.368 106.797C246.044 112.275 244.779 118.026 241.731 122.708C241.87 122.584 242.032 122.492 242.209 122.436C242.386 122.38 242.573 122.363 242.757 122.384C245.123 122.792 243.449 138.081 246.064 138.878C248.678 139.675 248.554 141.711 248.554 141.711C248.554 142.075 248.514 142.419 248.469 142.762C248.708 141.504 248.795 140.221 248.728 138.942C249.5 138.982 250.272 139.067 251.044 139.177C255.426 137.683 263.992 142.374 263.992 142.374C264.003 142.388 264.019 142.397 264.037 142.399C284.604 150.322 298.628 170.182 303.379 192.338C305.108 200.312 306.008 208.442 306.063 216.601V175.814C306.062 175.307 306.162 174.804 306.356 174.335C306.55 173.866 306.834 173.439 307.193 173.08C307.552 172.721 307.979 172.437 308.448 172.243C308.917 172.049 309.42 171.949 309.927 171.95H336.401C335.963 165.048 337.253 158.33 335.45 151.562ZM229.057 157.578C229.764 157.767 230.496 157.941 231.228 158.076C231.696 158.076 232.17 158.031 232.643 157.991C236.199 157.6 239.554 156.14 242.264 153.803C239.62 155.67 236.288 156.831 232.409 157.289C231.139 157.448 230.023 157.533 229.057 157.578ZM239.56 125.412C237.028 128.014 233.696 129.692 230.098 130.178C230.773 130.292 231.455 130.356 232.14 130.372C235.715 130.437 237.907 127.708 239.56 125.412Z" fill="black"/>
<path d="M295.042 264.183C293.752 267.615 292.871 269.552 292.871 269.552C293.214 285.871 283.229 323.221 283.229 323.221C269.898 324.402 258.085 324.148 247.607 322.838C274.3 302.803 287.462 281.061 295.042 264.183Z" fill="black"/>
<path d="M304.808 219.544C271.656 207.094 251.342 225.166 251.342 225.166C251.303 273.826 209.625 300.772 200.347 306.136C176.732 290.295 170.223 269.553 170.223 269.553L172.35 267.063C173.844 262.9 177.673 249.952 178.923 237.477C180.103 225.689 178.769 214.31 178.684 211.108C178.49 204.519 175.507 206.023 172.006 207.288C168.505 208.553 152.295 208.941 152.295 208.941C170.263 198.822 160.95 155.894 160.95 155.894L200.113 143.16C200.113 143.16 211.194 136.916 213.126 144.879C215.058 152.842 222.767 156.333 231.203 158.125C239.639 159.918 247.438 150.202 248.489 142.344C249.54 134.485 263.927 142.344 263.927 142.344C299.379 159.983 306.506 192.039 304.808 219.544Z" fill="black"/>
<path d="M37.8648 377.31C37.8648 377.31 68.3623 373.969 73.6261 377.31C73.6261 377.31 74.5923 384.232 69.936 392.818C65.2797 401.403 59.5577 395.502 28.7862 397.474C28.7862 397.474 3.77165 399.466 3.48281 390.323C3.19397 381.18 14.8521 379.905 21.6399 379.83C28.4277 379.755 37.8648 377.31 37.8648 377.31Z" fill="black"/>
<path d="M152.833 368.47H152.49" stroke="black" stroke-width="5.55" stroke-miterlimit="10"/>
<path d="M137.783 172.757C148.67 168.075 156.483 156.178 163.181 146.945C167.663 140.805 173.141 132.842 177.623 126.741C182.006 120.815 190.746 110.307 193.086 103.335C193.191 103.037 193.276 102.738 193.365 102.454" stroke="black" stroke-width="5.55" stroke-miterlimit="10"/>
<path d="M177.783 206.233C165.308 208.807 110.02 217.871 103.661 177.543C96.4694 132.046 169.451 114.74 175.442 100.975C181.433 87.2107 175.243 72.2309 191.01 65.2589C197.982 62.1663 202.882 62.8137 204.56 66.2051" stroke="black" stroke-width="5.55" stroke-miterlimit="10"/>
<path d="M73.6511 380.277C79.5524 352.324 93.1877 295.617 111.718 268.133" stroke="black" stroke-width="5.55" stroke-miterlimit="10"/>
<path d="M175.617 198.31C180.721 213.897 183.311 238.498 170.582 271.954" stroke="black" stroke-width="5.55" stroke-miterlimit="10"/>
<path d="M79.423 405.7H61.8586C59.1669 405.676 56.5922 404.597 54.6884 402.694C52.7845 400.791 51.7038 398.217 51.6794 395.525C51.6829 395.057 51.7198 394.589 51.789 394.126C52.1271 393.305 52.3712 392.448 52.5161 391.571C52.8199 389.898 52.8846 388.907 55.8875 387.343C57.8033 386.368 59.7759 385.506 61.7938 384.764C62.1773 384.634 62.5657 384.465 62.994 384.316C64.6075 383.713 66.7738 382.896 69.3286 381.93C69.976 381.696 70.6383 381.432 71.3206 381.178C72.0028 380.924 72.8444 380.6 73.6412 380.297C85.409 375.919 102.112 369.689 113.063 365.591H113.128C113.672 365.486 114.226 365.436 114.781 365.441C117.314 365.443 119.743 366.449 121.533 368.241C123.325 370.031 124.331 372.46 124.333 374.993C124.333 374.993 57.9493 393.892 79.423 405.7Z" fill="black"/>
<path d="M106.021 277.715C113.879 298.432 118.969 324.208 142.181 355.707" stroke="black" stroke-width="5.55" stroke-miterlimit="10"/>
<path d="M250.894 216.452C254.48 251.172 236.532 288.273 189.85 311.913C175.124 319.383 161.379 329.343 151.09 342.361C148.245 345.997 145.653 349.824 143.331 353.815C141.568 356.803 137.51 362.281 139.417 365.921C140.413 367.829 142.056 368.501 144.103 368.501C149.691 368.501 155.363 354.333 159.745 348.013" stroke="black" stroke-width="5.55" stroke-miterlimit="10"/>
<path d="M169.87 351.886C169.87 351.886 159.805 368.29 152.833 368.48C145.861 368.669 150.791 363.091 150.791 363.091" stroke="black" stroke-width="5.55" stroke-miterlimit="10"/>
<path d="M217.633 139.923C195.562 142.886 173.53 150.122 153.974 158.887" stroke="black" stroke-width="5.55" stroke-miterlimit="10"/>
<path d="M177.031 357.37C176.989 357.44 176.939 357.506 176.882 357.564C176.045 358.699 175.144 359.905 174.153 361.05C171.792 363.908 169.068 366.593 165.607 367.728C162.838 368.654 157.216 367.947 160.413 364.013" stroke="black" stroke-width="5.55" stroke-miterlimit="10"/>
<path d="M159.92 364.735C159.81 364.735 159.681 364.799 159.576 364.819" stroke="black" stroke-width="5.55" stroke-miterlimit="10"/>
<path d="M244.754 353.635C233.589 353.675 223.111 354.232 213.38 355.129C204.466 355.945 199.934 356.463 192.26 357.773" stroke="black" stroke-width="5.55" stroke-miterlimit="10"/>
<path d="M174.247 361.188C173.943 361.234 173.642 361.299 173.346 361.383" stroke="black" stroke-width="5.55" stroke-miterlimit="10"/>
<path d="M149.676 367.803C141.917 370.239 134.329 373.186 126.962 376.627C126.715 376.753 126.442 376.819 126.165 376.822C125.679 376.818 125.213 376.621 124.872 376.275C124.53 375.929 124.34 375.461 124.342 374.974C124.34 372.441 123.332 370.012 121.54 368.221C119.748 366.43 117.319 365.424 114.786 365.422C114.231 365.417 113.677 365.467 113.132 365.572H113.068C112.502 365.684 111.948 365.851 111.414 366.07L73.6511 380.278C72.8543 380.581 72.0824 380.881 71.3304 381.16C70.5784 381.439 69.9808 381.657 69.3384 381.911C66.7836 382.877 64.6173 383.694 63.0038 384.297C62.5755 384.446 62.1871 384.615 61.8036 384.745L59.2091 385.711C58.0064 386.029 56.8764 386.577 55.8824 387.324C54.378 388.383 53.2082 389.85 52.511 391.553C52.136 392.361 51.8904 393.223 51.7839 394.108C51.7147 394.571 51.6778 395.038 51.6743 395.507C51.6992 398.198 52.7794 400.772 54.6832 402.675C56.5871 404.578 59.1617 405.658 61.8534 405.681H300.395C305.748 405.668 310.961 403.974 315.298 400.838C319.635 397.702 322.877 393.282 324.566 388.203C326.256 383.125 326.306 377.644 324.712 372.535C323.117 367.425 319.957 362.946 315.679 359.73L289.853 339.572C285.341 336.046 281.412 328.615 283.214 323.207C288.971 305.873 292.222 287.806 292.871 269.552" stroke="black" stroke-width="5.55" stroke-miterlimit="10"/>
<path d="M51.7391 396.618H10.5595C9.62459 396.62 8.69836 396.438 7.83383 396.082C6.96935 395.726 6.18356 395.203 5.52157 394.543C4.85958 393.883 4.33434 393.099 3.97597 392.235C3.61756 391.372 3.43311 390.446 3.43311 389.511C3.43311 386.025 7.0187 382.146 10.4549 381.543L40.2851 376.931C38.3529 302.465 51.7391 243.592 66.8684 217.547C71.45 209.648 78.7855 204.101 87.0971 201.038C105.772 194.191 126.693 202.134 137.246 218.991L150.224 239.728L166.548 265.803C166.687 266.017 166.832 266.231 166.981 266.435L173.65 275.369" stroke="black" stroke-width="5.55" stroke-miterlimit="10"/>
<path d="M183.644 147.591C195.024 139.125 193.33 95.0721 193.33 95.0721C193.136 84.4846 197.085 72.5874 205.312 65.5257C206.433 64.5666 207.632 63.704 208.898 62.9461C217.787 57.7071 230.133 58.1802 238.977 63.2897C243.686 66.082 247.609 70.0227 250.381 74.7437C252.956 79.0972 254.764 83.8611 255.725 88.8272C256.784 94.0537 258.114 99.2214 259.709 104.31C261.128 108.792 261.92 114.23 265.655 117.557C272.806 123.956 284.166 121.934 292.905 121.655C305.281 121.262 317.771 126.561 326.271 135.55C330.591 140.046 333.72 145.549 335.375 151.56C337.168 158.338 335.873 165.061 336.336 171.943" stroke="black" stroke-width="5.55" stroke-miterlimit="10"/>
<path d="M219.73 149.032L217.05 137.428L213.36 122.996" stroke="black" stroke-width="5.55" stroke-miterlimit="10"/>
<path d="M227.025 121.069C228.978 121.069 230.561 119.486 230.561 117.533C230.561 115.581 228.978 113.998 227.025 113.998C225.072 113.998 223.489 115.581 223.489 117.533C223.489 119.486 225.072 121.069 227.025 121.069Z" stroke="black" stroke-width="5.55" stroke-miterlimit="10"/>
<path d="M389.413 276.739C389.417 278.133 389.146 279.514 388.614 280.804C388.083 282.094 387.303 283.266 386.318 284.253C385.333 285.24 384.163 286.023 382.874 286.558C381.586 287.091 380.205 287.366 378.811 287.366C377.526 287.371 376.251 287.138 375.051 286.679C373.571 285.193 372.564 283.302 372.158 281.245C371.751 279.188 371.964 277.056 372.767 275.12C373.572 273.183 374.931 271.528 376.675 270.363C378.419 269.199 380.468 268.577 382.565 268.576C383.842 268.573 385.109 268.806 386.3 269.264C387.287 270.242 388.071 271.406 388.605 272.689C389.14 273.972 389.414 275.349 389.413 276.739Z" fill="#D7E8F0"/>
<path d="M389.413 208.931C389.414 210.324 389.141 211.704 388.609 212.991C388.076 214.278 387.295 215.448 386.311 216.433C385.326 217.418 384.157 218.2 382.87 218.733C381.583 219.265 380.203 219.539 378.811 219.539C377.757 219.669 376.688 219.533 375.7 219.144C374.713 218.755 373.839 218.125 373.157 217.312C372.475 216.498 372.008 215.527 371.798 214.487C371.587 213.447 371.641 212.371 371.953 211.357C371.953 209.963 372.226 208.584 372.759 207.296C373.292 206.009 374.074 204.839 375.059 203.854C376.044 202.869 377.213 202.088 378.5 201.555C379.788 201.022 381.167 200.748 382.56 200.749C383.854 200.743 385.137 200.983 386.34 201.456C388.313 203.443 389.417 206.131 389.413 208.931Z" fill="#D7E8F0"/>
<path d="M389.413 348.236C389.415 349.629 389.141 351.008 388.609 352.296C388.076 353.583 387.296 354.752 386.311 355.738C385.326 356.723 384.157 357.504 382.87 358.037C381.583 358.57 380.204 358.844 378.811 358.843C377.525 358.851 376.25 358.618 375.051 358.156C373.573 356.67 372.567 354.78 372.162 352.723C371.756 350.667 371.969 348.537 372.773 346.601C373.577 344.666 374.936 343.011 376.678 341.847C378.421 340.683 380.469 340.06 382.566 340.059C383.842 340.053 385.109 340.286 386.301 340.746C387.29 341.726 388.075 342.892 388.609 344.178C389.144 345.464 389.417 346.843 389.413 348.236Z" fill="#D7E8F0"/>
<path d="M389.413 276.739C389.417 278.133 389.146 279.514 388.614 280.804C388.083 282.094 387.303 283.266 386.318 284.253C385.333 285.24 384.163 286.023 382.874 286.558C381.586 287.091 380.205 287.366 378.811 287.366C377.526 287.371 376.251 287.138 375.051 286.679C373.571 285.193 372.564 283.302 372.158 281.245C371.751 279.188 371.964 277.056 372.767 275.12C373.572 273.183 374.931 271.528 376.675 270.363C378.419 269.199 380.468 268.577 382.565 268.576C383.842 268.573 385.109 268.806 386.3 269.264C387.287 270.242 388.071 271.406 388.605 272.689C389.14 273.972 389.414 275.349 389.413 276.739Z" fill="#D7E8F0"/>
<path d="M389.413 208.931C389.414 210.324 389.141 211.704 388.609 212.991C388.076 214.278 387.295 215.448 386.311 216.433C385.326 217.418 384.157 218.2 382.87 218.733C381.583 219.265 380.203 219.539 378.811 219.539C377.757 219.669 376.688 219.533 375.7 219.144C374.713 218.755 373.839 218.125 373.157 217.312C372.475 216.498 372.008 215.527 371.798 214.487C371.587 213.447 371.641 212.371 371.953 211.357C371.953 209.963 372.226 208.584 372.759 207.296C373.292 206.009 374.074 204.839 375.059 203.854C376.044 202.869 377.213 202.088 378.5 201.555C379.788 201.022 381.167 200.748 382.56 200.749C383.854 200.743 385.137 200.983 386.34 201.456C388.313 203.443 389.417 206.131 389.413 208.931Z" fill="#D7E8F0"/>
<path d="M389.413 348.236C389.415 349.629 389.141 351.008 388.609 352.296C388.076 353.583 387.296 354.752 386.311 355.738C385.326 356.723 384.157 357.504 382.87 358.037C381.583 358.57 380.204 358.844 378.811 358.843C377.525 358.851 376.25 358.618 375.051 358.156C373.573 356.67 372.567 354.78 372.162 352.723C371.756 350.667 371.969 348.537 372.773 346.601C373.577 344.666 374.936 343.011 376.678 341.847C378.421 340.683 380.469 340.06 382.566 340.059C383.842 340.053 385.109 340.286 386.301 340.746C387.29 341.726 388.075 342.892 388.609 344.178C389.144 345.464 389.417 346.843 389.413 348.236Z" fill="#D7E8F0"/>
<path d="M212.299 108.35C217.41 108.35 221.552 104.208 221.552 99.0974C221.552 93.9875 217.41 89.8446 212.299 89.8446C207.189 89.8446 203.046 93.9875 203.046 99.0974C203.046 104.208 207.189 108.35 212.299 108.35Z" stroke="black" stroke-width="5.55" stroke-miterlimit="10"/>
<path d="M236.273 107.528C241.383 107.528 245.526 103.385 245.526 98.2747C245.526 93.1642 241.383 89.0219 236.273 89.0219C231.163 89.0219 227.02 93.1642 227.02 98.2747C227.02 103.385 231.163 107.528 236.273 107.528Z" stroke="black" stroke-width="5.55" stroke-miterlimit="10"/>
<path d="M208.43 97.8828C208.43 97.8828 212.16 102.161 215.995 97.8828" stroke="black" stroke-width="5.55" stroke-miterlimit="10"/>
<path d="M232.513 97.8828C232.513 97.8828 236.238 102.161 240.078 97.8828" stroke="black" stroke-width="5.55" stroke-miterlimit="10"/>
<path d="M221.557 99.1229C221.557 99.1229 223.659 95.7116 227.035 98.3012" stroke="black" stroke-width="5.55" stroke-miterlimit="10"/>
<path d="M205.372 105.208C206.059 110.233 207.364 114.312 210.741 119.591C214.286 125.069 220.661 130.328 227.364 130.372C230.212 130.427 233.026 129.746 235.534 128.397C238.043 127.048 240.162 125.075 241.686 122.668C244.734 117.992 246.009 112.255 246.333 106.732C246.547 103.022 246.636 99.0731 245.282 95.5472C243.788 91.6927 240.302 89.0732 236.139 89.123C234.092 89.1529 232.06 89.5314 230.013 89.4667C223.967 89.2824 218.519 85.1291 217.937 78.8344C218.151 81.1401 215.945 83.6749 214.665 85.408C213.532 86.9179 212.191 88.2595 210.681 89.392C209.237 90.4527 206.911 90.9607 205.88 92.4397" stroke="black" stroke-width="5.55" stroke-miterlimit="10"/>
<path d="M325.873 381.547H447.749C448.776 381.548 449.762 381.142 450.49 380.418C451.218 379.693 451.629 378.709 451.633 377.682V175.813C451.633 175.304 451.532 174.8 451.337 174.33C451.142 173.859 450.855 173.432 450.494 173.073C450.133 172.714 449.705 172.43 449.234 172.237C448.763 172.044 448.258 171.946 447.749 171.948H309.857C309.35 171.948 308.847 172.047 308.378 172.241C307.909 172.435 307.482 172.72 307.123 173.079C306.764 173.438 306.48 173.864 306.286 174.333C306.092 174.802 305.992 175.305 305.993 175.813V352.15" stroke="black" stroke-width="5.55" stroke-miterlimit="10"/>
<path d="M451.623 241.396H305.998V312.082H451.623V241.396Z" stroke="black" stroke-width="5.55" stroke-miterlimit="10"/>
<path d="M248.569 137.468C249.714 147.707 242.548 156.89 232.568 158.02C222.588 159.151 213.589 151.731 212.424 141.492" stroke="black" stroke-width="5.55" stroke-miterlimit="10"/>
<path d="M243.469 119.396L245.531 138.678C246.527 138.723 247.523 138.788 248.519 138.873C277.482 141.149 297.407 164.983 303.299 192.293C305.028 200.268 305.928 208.4 305.983 216.561C306.037 226.986 304.612 237.367 301.75 247.392C298.904 257.176 294.851 266.568 289.683 275.35C284.418 284.27 278.263 292.634 271.312 300.314C264.157 308.195 256.389 315.497 248.081 322.152C241.318 327.58 234.211 332.52 227.04 337.376C220.621 341.708 213.594 344.995 206.901 348.83C199.929 352.814 193.136 357.076 186.543 361.628C183.022 364.073 178.684 366.349 174.521 363.989C173.361 363.346 173.525 362.226 174.152 361.065C174.885 359.716 176.259 358.321 176.881 357.579" stroke="black" stroke-width="5.55" stroke-miterlimit="10"/>
<path d="M378.811 287.352C384.672 287.352 389.423 282.6 389.423 276.74C389.423 270.878 384.672 266.127 378.811 266.127C372.95 266.127 368.198 270.878 368.198 276.74C368.198 282.6 372.95 287.352 378.811 287.352Z" stroke="black" stroke-width="5.55" stroke-miterlimit="10"/>
<path d="M378.811 219.534C384.672 219.534 389.423 214.783 389.423 208.922C389.423 203.061 384.672 198.31 378.811 198.31C372.95 198.31 368.198 203.061 368.198 208.922C368.198 214.783 372.95 219.534 378.811 219.534Z" stroke="black" stroke-width="5.55" stroke-miterlimit="10"/>
<path d="M378.811 358.85C384.672 358.85 389.423 354.098 389.423 348.237C389.423 342.376 384.672 337.625 378.811 337.625C372.95 337.625 368.198 342.376 368.198 348.237C368.198 354.098 372.95 358.85 378.811 358.85Z" stroke="black" stroke-width="5.55" stroke-miterlimit="10"/>
<path d="M302.104 246.081C300.346 250.976 298.174 257.162 295.042 264.183C298.13 255.872 303.652 238.825 304.808 219.543C304.808 219.543 308.483 228.537 302.104 246.081Z" fill="black"/>
<path d="M413.287 64.829L380.917 69.6746L386.555 73.6586L397.097 82.0997C398.751 83.26 398.337 86.004 399.254 87.6673C399.598 90.1787 399.201 92.7355 398.113 95.0243C397.023 97.3131 395.289 99.2339 393.124 100.551C390.958 101.867 388.455 102.523 385.922 102.436C383.389 102.349 380.936 101.524 378.865 100.063L353.428 82.1594C350.619 80.2207 348.365 77.5823 346.889 74.5052C344.807 64.1418 351.197 52.6231 363.467 50.7904L398.825 45.4867L393.646 41.4529L377.586 28.9531C376.209 27.8904 375.061 26.5607 374.209 25.0438C373.854 22.4791 374.271 19.8671 375.409 17.5409C376.547 15.2153 378.353 13.2821 380.596 11.9887C382.84 10.6959 385.418 10.1013 388.001 10.2821C390.583 10.4624 393.054 11.4096 395.095 13.0022L423.745 35.2927C426.087 37.0934 427.981 39.4116 429.278 42.0655C431.215 52.0553 424.985 63.0761 413.287 64.829Z" fill="black"/>
<path d="M413.287 64.8306L380.917 69.6756L386.554 73.6596L393.865 78.7696C395.278 79.7462 396.484 80.9932 397.414 82.4384C398.343 83.8836 398.976 85.4986 399.278 87.1898C399.58 88.8815 399.544 90.6155 399.171 92.2928C398.799 93.9706 398.099 95.5572 397.11 96.9625C396.121 98.3679 394.864 99.5631 393.411 100.48C391.958 101.397 390.338 102.017 388.644 102.304C386.95 102.592 385.216 102.541 383.542 102.155C381.868 101.768 380.287 101.054 378.89 100.054L353.427 82.1605C350.619 80.2218 348.365 77.5834 346.889 74.5067C341.475 63.2669 347.805 48.3269 361.938 46.2054L389.991 42.0023L393.646 41.454L377.585 28.9547C376.208 27.9153 375.052 26.6126 374.183 25.1226C373.314 23.6325 372.749 21.9842 372.523 20.274C372.297 18.5639 372.413 16.8259 372.864 15.1606C373.316 13.4958 374.094 11.937 375.154 10.576C376.213 9.21445 377.533 8.07702 379.036 7.22992C380.539 6.38332 382.195 5.84349 383.908 5.64279C385.622 5.4421 387.358 5.58353 389.015 6.06012C390.674 6.53621 392.221 7.33749 393.566 8.41715L422.216 30.7126C425.882 33.5039 428.395 37.5447 429.278 42.0665C431.215 52.0564 424.985 63.0776 413.287 64.8306Z" stroke="black" stroke-width="5.55" stroke-miterlimit="10"/>
<path d="M311.247 104.6L310.824 92.987L305.669 98.2758C305.237 98.7195 304.722 99.0736 304.152 99.3176C303.583 99.5616 302.971 99.6911 302.352 99.6986C301.733 99.706 301.118 99.5915 300.543 99.3609C299.968 99.1304 299.444 98.7887 299.001 98.3555C298.557 97.9232 298.203 97.4078 297.959 96.8386C297.715 96.2694 297.586 95.6573 297.578 95.0383C297.571 94.4188 297.686 93.8042 297.916 93.2291C298.146 92.6539 298.488 92.1305 298.921 91.6873L308.114 82.2701C309.068 81.2955 310.285 80.6217 311.617 80.3319C312.949 80.042 314.337 80.1491 315.609 80.6401C316.881 81.1306 317.981 81.9837 318.773 83.0928C319.565 84.2023 320.015 85.5195 320.066 86.8815L320.5 98.729L324.299 94.4412C324.71 93.9781 325.209 93.6001 325.766 93.3292C326.323 93.0582 326.928 92.8999 327.546 92.863C328.164 92.8262 328.784 92.9113 329.369 93.1135C329.955 93.3162 330.495 93.6319 330.958 94.0428C331.421 94.4536 331.8 94.9516 332.071 95.5084C332.342 96.0657 332.501 96.6702 332.539 97.2888C332.576 97.9068 332.492 98.5263 332.289 99.1119C332.087 99.6976 331.772 100.237 331.361 100.701L323.891 109.137C322.937 110.231 321.676 111.012 320.272 111.378C318.868 111.743 317.386 111.677 316.02 111.187C314.654 110.696 313.467 109.806 312.616 108.631C311.765 107.456 311.287 106.051 311.247 104.6Z" fill="#D7E8F0"/>
<path d="M269.549 98.7081L275.027 97.483L272.039 95.491C271.538 95.1528 271.19 94.6299 271.073 94.0368C270.955 93.4432 271.077 92.8277 271.412 92.3237C271.749 91.8212 272.272 91.4726 272.866 91.3551C273.46 91.2375 274.076 91.3601 274.579 91.6962L279.873 95.242C280.42 95.609 280.847 96.1279 281.102 96.735C281.356 97.342 281.427 98.0108 281.306 98.6578C281.185 99.3051 280.876 99.9023 280.419 100.376C279.961 100.849 279.375 101.179 278.733 101.323L273.13 102.573L275.506 104.002C276.024 104.315 276.398 104.821 276.544 105.409C276.691 105.997 276.599 106.619 276.287 107.139C275.974 107.658 275.468 108.032 274.88 108.177C274.291 108.323 273.669 108.229 273.15 107.916L268.514 105.097C267.916 104.738 267.441 104.209 267.148 103.577C266.855 102.945 266.758 102.24 266.869 101.552C266.981 100.864 267.295 100.226 267.773 99.719C268.251 99.212 268.87 98.8599 269.549 98.7081Z" fill="#D7E8F0"/>
</svg>
