<svg width="50" height="38" viewBox="0 0 50 38" fill="none" xmlns="http://www.w3.org/2000/svg">
<path d="M12.3294 14.5791C10.9757 15.5544 11.0186 13.1742 11.6526 13.3826C11.7965 13.4308 12.3223 13.9133 12.4262 13.604C12.4715 13.4702 12.0878 11.9637 11.9428 11.6539C12.9833 10.9205 13.7584 9.91642 14.1668 8.77293C14.1668 8.64001 13.7802 8.81731 13.7802 8.81731C13.8592 8.63429 13.8922 8.43732 13.8768 8.24101C13.8683 8.23072 13.8574 8.22238 13.8448 8.21663C13.8322 8.21088 13.8183 8.20789 13.8043 8.20789C13.7902 8.20789 13.7764 8.21088 13.7638 8.21663C13.7512 8.22238 13.7402 8.23072 13.7318 8.24101C13.4899 8.68439 12.9099 8.77172 12.4262 8.81731C11.8473 8.81731 9.81518 8.55196 9.08991 8.8617C8.75149 8.99462 8.36464 9.43776 8.51096 10.2367C8.51096 10.3255 8.65596 10.8574 8.75254 10.9015C9.12675 10.9002 9.49435 10.9919 9.81623 11.1669C9.86465 11.211 9.81623 11.2554 9.76807 11.2554C9.57465 11.2554 9.42939 11.211 9.28439 11.211C8.60754 11.1669 7.64043 11.1669 7.54385 11.9646C7.447 12.5851 7.68885 13.2058 7.93069 13.7377C8.22017 14.4023 9.81623 16.5743 10.0097 16.6628C10.0774 16.6641 10.1449 16.6554 10.2097 16.6373C10.2599 17.1038 10.3523 17.5684 10.4449 17.9925C10.4931 18.2578 10.7833 18.3027 10.7344 17.9925C10.5968 17.5298 10.5026 17.0671 10.3694 16.6045C11.0581 16.4568 12.5173 16.0791 12.8136 15.9095C12.9099 15.8646 12.4736 14.4462 12.3294 14.5791ZM12.8615 9.48214C12.8865 9.48396 12.9099 9.49387 12.9276 9.5101C12.9453 9.52632 12.9561 9.5478 12.9581 9.57067C12.9581 9.84399 12.0281 10.0049 11.991 10.0141C11.9428 10.0141 11.8944 9.92528 11.9428 9.92528C11.9965 9.87583 12.7289 9.44162 12.8615 9.48214ZM10.3947 14.9781C10.3948 14.9839 10.3936 14.9898 10.3913 14.9952C10.3889 15.0007 10.3853 15.0056 10.3808 15.0098C10.3763 15.0139 10.3709 15.0172 10.3649 15.0194C10.359 15.0215 10.3526 15.0226 10.3462 15.0225C10.2012 15.0669 10.0568 14.9337 10.0078 14.8452C9.90424 14.732 9.8076 14.6136 9.71834 14.4906C9.74009 14.8446 9.83849 15.1911 10.0078 15.51C10.0212 15.5395 10.0238 15.5723 10.0151 15.6033C10.0065 15.6343 9.98703 15.6619 9.95976 15.6819C9.9325 15.7019 9.89888 15.7133 9.86398 15.7142C9.82907 15.7152 9.79476 15.7058 9.76623 15.6873C9.43762 15.3709 9.16071 15.0126 8.94412 14.6235C8.71201 14.2199 8.4607 13.8257 8.50912 13.3382C8.50912 13.2938 8.6057 13.2494 8.6057 13.3382C8.71876 13.752 8.91511 14.1428 9.18465 14.4906C9.28094 14.6629 9.39534 14.8261 9.52623 14.9781C9.43657 14.6898 9.42 14.3866 9.47781 14.0916C9.47896 14.0655 9.48964 14.0405 9.50814 14.0207C9.52663 14.0009 9.55186 13.9873 9.57978 13.9822C9.60769 13.9771 9.63666 13.9808 9.66203 13.9926C9.6874 14.0044 9.70769 14.0237 9.71965 14.0474C9.9386 14.451 10.4586 14.7465 10.3947 14.9781ZM9.38018 9.39337C9.33018 9.41508 9.2886 9.38686 9.33175 9.34922C9.51119 9.21285 9.72118 9.11436 9.94681 9.06075C10.1724 9.00713 10.4082 8.99971 10.6373 9.039C11.0213 9.09371 11.409 9.12329 11.7976 9.12753C11.8239 9.12753 12.5123 9.04865 12.2328 9.30484C11.9049 9.53015 11.1705 9.42039 10.7823 9.34922C10.3218 9.22614 9.83038 9.24161 9.38018 9.39337Z" fill="#043F6D"/>
<path d="M14.8923 13.6041C15.0151 13.5138 15.1138 13.399 15.1808 13.2684C15.2478 13.1379 15.2813 12.995 15.2789 12.8507C15.2789 12.2549 14.7526 11.8827 14.3121 11.3879C14.0731 11.1199 13.7802 10.9004 13.4899 10.6345C13.4415 10.5902 13.3449 10.6345 13.3934 10.7231C13.5868 10.9448 13.7802 11.2108 13.9723 11.4323C14.5413 12.0836 14.8671 12.3972 14.9392 12.7619C14.9421 12.9956 14.8752 13.2255 14.7457 13.4268C14.7337 13.3601 14.7001 13.2983 14.6492 13.2495C14.6007 13.2053 14.5363 13.2085 14.5523 13.2939C14.6789 13.9618 14.8418 14.7123 14.6007 15.4213C14.5303 15.6676 14.3978 15.8953 14.2139 16.0861C14.0205 16.3078 13.7305 16.3966 13.4886 16.5739C13.4402 16.618 13.4402 16.7068 13.5371 16.7068C13.8755 16.7509 14.1655 16.5295 14.4073 16.3522C14.6466 16.1252 14.8286 15.8527 14.9405 15.5542C15.1427 14.915 15.1259 14.2342 14.8923 13.6041Z" fill="#043F6D"/>
<path d="M22.9187 18.2137C23.7284 18.0014 24.2276 17.7023 25.8198 16.9725C26.4277 16.7868 26.7169 16.6765 26.98 16.1748C29.2106 11.9197 29.4916 9.13522 29.7369 8.46194C29.7927 8.19946 29.8248 7.9332 29.8329 7.66589C29.8329 7.53273 29.6395 7.53273 29.5911 7.6215C29.4669 8.0892 29.3702 8.5627 29.3016 9.03993C28.8451 11.1061 28.1648 13.1254 27.2708 15.0678C27.034 15.5575 26.884 16.2643 26.3521 16.5304C25.821 16.7983 25.2719 17.0352 24.7082 17.2396C24.1226 17.4955 23.5476 17.8156 22.9187 18.0817C22.7734 18.1249 22.8218 18.2137 22.9187 18.2137Z" fill="#043F6D"/>
<path d="M29.4945 6.95577C29.2051 6.73408 28.9114 6.5604 28.5758 6.33533C28.3823 6.23953 28.2164 6.10274 28.0921 5.93634C28.0325 5.83406 28.0013 5.71989 28.0013 5.60392C28.0013 5.48796 28.0325 5.37379 28.0921 5.27151C28.1846 5.02736 28.2977 4.79023 28.4306 4.56229C28.5274 4.34084 28.6724 4.11915 28.7693 3.89746C28.8174 3.80893 28.6724 3.72016 28.5758 3.80893C28.4028 4.0141 28.2567 4.23725 28.1406 4.47376C27.9471 4.87251 27.6469 5.36125 27.7053 5.80342C27.7406 5.95282 27.8105 6.09349 27.9104 6.21588C28.0103 6.33826 28.1378 6.43948 28.2843 6.51263C28.6264 6.72974 29.0095 6.95577 29.3479 7.13308C29.4945 7.13308 29.5911 7.04431 29.4945 6.95577Z" fill="#043F6D"/>
<path d="M29.0593 4.73958C29.2185 3.93701 29.2577 3.0283 29.3487 2.52341C29.3972 2.25805 29.3972 1.9927 29.4456 1.72566C29.494 1.54836 29.5422 1.77005 29.5906 1.81443C29.639 1.99174 29.734 2.16928 29.784 2.39049C29.9245 3.0119 29.9774 3.676 30.0735 4.2962C30.0766 4.32361 30.0907 4.34898 30.113 4.36742C30.1353 4.38587 30.1643 4.39607 30.1944 4.39607C30.2245 4.39607 30.2535 4.38587 30.2758 4.36742C30.2981 4.34898 30.3122 4.32361 30.3153 4.2962C30.3493 3.37462 30.1851 2.45591 29.8319 1.5925C29.8158 1.52003 29.7738 1.45457 29.7124 1.4065C29.6511 1.35843 29.5741 1.3305 29.4935 1.32715C29.155 1.32715 29.204 1.85785 29.155 2.03612C29.0571 2.90494 29.0086 3.77785 29.0098 4.65129C28.9143 4.78397 29.0108 4.78397 29.0593 4.73958Z" fill="#043F6D"/>
<path d="M31.6219 3.36555C31.8114 3.51744 31.9462 3.71835 32.0088 3.94185C32.0572 4.16123 32.0572 4.38729 32.0088 4.60668C31.9846 4.6394 31.9717 4.67801 31.9717 4.71752C31.9717 4.75703 31.9846 4.79564 32.0088 4.82837C32.0572 4.87251 32.1053 4.82837 32.1538 4.78398C32.3432 4.61029 32.3169 4.14158 32.2506 3.89746C32.2109 3.75524 32.1386 3.6224 32.0386 3.50777C31.9385 3.39314 31.813 3.29934 31.6703 3.23263C31.6014 3.2102 31.5735 3.3214 31.6219 3.36555Z" fill="#043F6D"/>
<path d="M32.734 6.7341C32.8947 6.4247 33.0085 6.09666 33.0724 5.75905C33.1603 5.18179 33.1693 4.42939 32.734 3.94187C32.6856 3.85309 32.5406 3.94187 32.589 4.0304C32.8301 4.56371 32.8809 5.15329 32.734 5.71466C32.6372 6.24537 32.2867 6.68489 32.0572 7.17748C31.9548 7.397 32.3006 9.83656 32.3956 11.0777C32.494 12.363 32.4922 13.6485 32.4922 14.9337C32.4922 16.1749 32.3972 17.416 32.2988 18.7013C32.2602 19.3167 32.1467 19.9262 31.9603 20.5184C31.7969 20.96 31.5142 21.3565 31.1385 21.6708C30.6635 22.1169 30.127 22.5043 29.5427 22.8232C29.2053 23.0019 28.9143 23.1778 28.5758 23.3539C28.2358 23.5199 27.9122 23.7127 27.6087 23.9302C27.5119 23.9743 27.6087 24.1075 27.7053 24.0631C28.3565 23.8599 28.9746 23.5766 29.5427 23.2209C30.0735 22.921 30.5753 22.5799 31.0427 22.2015C31.4424 21.8832 31.7851 21.5093 32.0582 21.0935C32.3367 20.5661 32.5009 19.9941 32.5417 19.4093C33.0703 15.895 32.8488 10.9021 32.2522 7.39772C32.4922 7.3104 32.6856 6.86702 32.734 6.7341Z" fill="#043F6D"/>
<path d="M1.11196 30.9786C1.04354 31.9194 0.485114 34.2692 0.241691 35.189C0.0243212 36.0104 -0.000152588 35.9622 -0.000152588 36.1643C-0.000152588 36.2528 0.096427 36.2972 0.19327 36.2085C0.369846 35.9691 0.485503 35.6965 0.531693 35.4107C0.672484 34.8231 1.30538 31.9052 1.30538 30.9786C1.25696 30.8454 1.11196 30.8454 1.11196 30.9786Z" fill="#043F6D"/>
<path d="M30.4132 3.05532C30.5098 3.18823 30.6548 3.27701 30.7027 3.40993C30.8407 3.68787 30.9069 3.99124 30.8961 4.29644C30.8961 4.6045 31.2743 4.32057 31.138 3.76574C31.0894 3.54278 30.9908 3.33151 30.8485 3.1453C30.7413 3.03294 30.6095 2.94252 30.4616 2.87994C30.4132 2.9224 30.3648 3.01021 30.4132 3.05532Z" fill="#043F6D"/>
<path d="M17.745 28.2305C17.6481 28.2749 17.5992 28.1408 17.6965 28.0976C18.4173 27.7782 27.4153 24.7735 27.5124 24.7291C27.1258 23.7982 24.2245 16.8841 24.1279 16.5294C24.1192 16.5085 24.1059 16.4893 24.0887 16.4733C24.0716 16.4573 24.051 16.4447 24.0283 16.4364C24.0055 16.428 23.9811 16.4241 23.9567 16.4248C23.9322 16.4256 23.9081 16.431 23.8861 16.4407C22.8224 17.1055 16.3915 19.1888 16.2465 19.2332C14.6505 17.6818 9.8157 17.4599 7.78437 18.3022C7.75322 18.3108 7.72589 18.3283 7.70646 18.3522C7.68704 18.3761 7.67654 18.4051 7.67654 18.4349C7.67654 18.4647 7.68704 18.4937 7.70646 18.5176C7.72589 18.5416 7.75322 18.5591 7.78437 18.5676C8.26438 18.7037 8.58964 19.3055 8.65491 19.3653C6.9141 19.8961 5.30304 20.7729 4.20751 22.1132C2.79644 23.8385 2.65486 24.9534 0.436165 31.5096C0.432914 31.5337 0.435549 31.5581 0.443879 31.5811C0.452208 31.6042 0.466024 31.6252 0.484323 31.6427C1.54828 31.82 2.66013 31.8642 3.72408 32.0415C3.63987 29.8837 3.68198 27.4405 4.30303 25.3488C4.55432 24.3895 4.94464 23.4653 5.46357 22.601C5.51199 22.5566 5.60857 22.601 5.56041 22.6451C5.27938 23.1666 5.06828 23.7174 4.93172 24.2855C3.7725 27.4731 4.1783 32.0034 4.25488 35.3659C4.26593 35.8534 4.30303 36.3412 4.35146 36.8287C4.88348 36.9807 5.43818 37.0554 5.99541 37.0501C6.4791 37.0501 9.6207 36.8605 10.7339 36.7848C13.0528 36.6261 19.9208 36.3416 21.0813 36.4302C21.119 36.428 21.1545 36.4132 21.1812 36.3888C21.2078 36.3643 21.2239 36.3318 21.2263 36.2973C21.2505 35.1442 21.7582 27.7874 21.7582 27.2994C20.4002 27.5314 19.0598 27.8424 17.745 28.2305ZM14.2631 23.8426C14.4444 24.7656 14.8048 25.6514 15.3273 26.4577C15.3463 26.4728 15.3605 26.4921 15.3686 26.5139C15.3768 26.5356 15.3784 26.5589 15.3735 26.5814C15.3686 26.6039 15.3572 26.6248 15.3406 26.642C15.324 26.6592 15.3027 26.672 15.2789 26.6792C15.1823 26.6792 15.0855 26.5019 15.0373 26.4577C14.8439 26.1924 14.6505 25.8814 14.4571 25.5712C14.166 24.9336 13.9712 24.2626 13.8781 23.5767C13.7002 22.2763 14.1939 20.984 14.7484 20.3855C14.7926 20.3373 15.4255 19.8092 15.3771 19.9865C15.3286 20.1194 15.1307 20.2485 15.0386 20.3411C14.8053 20.6053 14.6252 20.9055 14.5068 21.2276C14.1768 22.0646 14.0928 22.9664 14.2631 23.8426ZM12.7631 19.1888C13.0744 19.2135 13.3659 19.3392 13.5852 19.5434C13.5943 19.5544 13.6003 19.5672 13.6028 19.5809C13.6052 19.5945 13.604 19.6084 13.5992 19.6215C13.5945 19.6346 13.5863 19.6465 13.5754 19.656C13.5645 19.6655 13.5513 19.6725 13.5368 19.6763C12.8023 19.6763 12.8828 19.3217 9.8136 19.3217C9.71702 19.3217 9.76544 19.2332 9.8136 19.2332C10.4878 19.1856 12.0699 19.0829 12.7631 19.1888Z" fill="#100259"/>
<path d="M33.7493 0.0413843C32.6727 0.0413843 26.7616 -0.0517304 25.8198 0.0413843C25.2887 0.0939724 24.7076 0.174302 24.3198 0.57209C24.1056 0.778511 23.9699 1.04284 23.9329 1.32569C23.8824 1.9009 23.8824 2.4789 23.9329 3.0541C23.9776 3.54211 23.975 4.03494 24.4163 4.42911C25.275 5.19381 26.7366 4.80591 27.8011 4.82811C27.8204 4.82811 27.8388 4.82109 27.8524 4.80861C27.8661 4.79612 27.8737 4.77919 27.8737 4.76153C27.8737 4.74387 27.8661 4.72693 27.8524 4.71445C27.8388 4.70196 27.8204 4.69495 27.8011 4.69495C27.3658 4.69495 26.8824 4.6508 26.4471 4.6508C25.594 4.6508 24.7924 4.63078 24.4163 3.94159C24.1748 3.49845 24.2229 2.92215 24.2229 2.43462C24.2229 1.99149 24.1748 1.3708 24.4163 0.972049C24.6579 0.573296 25.1911 0.405159 25.6737 0.351365C26.332 0.285317 26.994 0.255753 27.6561 0.262833C34.9869 0.262833 35.4435 0.243294 35.634 0.262833C35.8767 0.301769 36.1085 0.384514 36.316 0.506264C36.5235 0.628013 36.7026 0.78634 36.8427 0.972049C37.1248 1.41287 37.2274 1.93106 37.1322 2.43462C37.1204 2.50024 37.0654 3.52354 36.7938 3.94159C36.374 4.58736 34.798 4.60786 34.4253 4.6508H33.5548C33.5067 4.6508 33.3132 4.6508 33.3614 4.73933H33.4098C34.1336 4.80025 34.8619 4.80025 35.5856 4.73933C36.0693 4.69495 36.5527 4.60642 36.8427 4.25181C37.1322 3.94159 37.1746 3.54187 37.2296 3.14384C37.2832 2.83571 37.3155 2.52479 37.3264 2.21293C37.3506 1.93266 37.3506 1.65107 37.3264 1.3708C37.2636 1.12684 37.1449 0.897915 36.9781 0.699236C36.8114 0.500556 36.6004 0.336666 36.3593 0.218447C36.1283 0.112306 35.3632 0.0413843 33.7493 0.0413843Z" fill="#043F6D"/>
<path d="M41.9691 14.0475C43.0299 14.1397 44.0971 14.1544 45.1604 14.0916C45.5555 14.0937 45.948 14.0337 46.321 13.9143C46.5164 13.8407 46.6939 13.7323 46.8433 13.5954C46.9927 13.4585 47.111 13.2957 47.1912 13.1165C47.2694 12.8873 47.3021 12.6471 47.2878 12.4073C47.2878 11.874 47.3015 11.7801 47.2397 11.6096C47.2397 11.5652 47.1428 11.5652 47.1428 11.6096C47.077 11.8106 47.0605 12.0225 47.0944 12.23C47.0889 12.4542 47.0565 12.6772 46.9978 12.8949C46.9512 13.0697 46.8616 13.2325 46.7359 13.3708C46.6102 13.5091 46.4517 13.6192 46.2725 13.6928C45.9115 13.7947 45.5378 13.8543 45.1604 13.8701C44.7736 13.8701 44.3383 13.9143 43.9517 13.9143C43.323 13.9143 42.6462 13.9143 42.0175 13.9587C41.9212 14.0031 41.9212 14.0475 41.9691 14.0475Z" fill="#043F6D"/>
<path d="M30.7032 23.3551C32.5022 23.391 37.5604 23.5032 38.6812 23.3995C39.2127 23.3512 39.7509 23.3189 40.1812 23.0449C40.7209 22.7004 40.8099 22.1583 40.8099 21.6264C40.927 19.9072 40.9501 18.6897 39.0691 18.5684C38.1033 18.5059 37.1351 18.5684 36.1196 18.5684C33.5601 18.5684 33.7248 18.6125 33.2669 18.6125C33.2476 18.6125 33.2292 18.6195 33.2156 18.632C33.2019 18.6445 33.1943 18.6614 33.1943 18.6791C33.1943 18.6967 33.2019 18.7137 33.2156 18.7262C33.2292 18.7386 33.2476 18.7457 33.2669 18.7457C33.4603 18.7457 33.7988 18.7862 34.0406 18.7898C35.4917 18.812 36.9414 18.7039 38.3922 18.7898C39.1656 18.8356 40.1904 18.8315 40.4712 19.6763C40.7209 20.4275 40.6635 21.4491 40.5193 22.2027C40.3246 23.2219 38.6335 23.1696 37.7633 23.1778C35.3948 23.2 33.0732 23.1334 30.704 23.2222C30.6548 23.2665 30.6548 23.3541 30.7032 23.3551Z" fill="#043F6D"/>
<path d="M48.3515 19.7648C47.2781 19.6667 41.3778 19.7472 41.2438 19.8092C41.1472 19.8536 41.2922 22.4685 41.3891 22.4685C42.5996 22.3892 48.4155 22.3436 48.8836 22.2471C49.467 22.1265 49.802 21.5379 49.802 21.006C49.8505 20.2968 49.077 19.8536 48.3515 19.7648Z" fill="#100259"/>
<path d="M28.2856 10.546C26.9363 10.4202 25.5795 10.3757 24.224 10.4128C23.5471 10.4128 22.8703 10.4128 22.1934 10.4572C21.8542 10.4498 21.5148 10.4647 21.1779 10.5016C20.8547 10.4923 20.5313 10.5071 20.2108 10.5457C19.9418 10.6022 19.6934 10.7218 19.49 10.8927C19.2866 11.0637 19.1351 11.2802 19.0505 11.521C18.8571 11.9642 19.1002 12.4502 19.4855 12.7619C19.9214 13.084 20.4744 13.2425 21.0329 13.2053C23.494 13.2053 25.1021 13.2205 27.6087 13.0721C27.7053 13.0721 27.7053 12.8948 27.6087 12.9392C25.6928 13.0432 23.7723 13.058 21.8547 12.9836C21.3229 12.9836 20.6968 13.0212 20.1626 12.8507C19.7295 12.7122 19.2439 12.32 19.2439 11.8312C19.2663 11.6015 19.3677 11.3843 19.5334 11.2108C19.6868 10.9872 19.93 10.828 20.2105 10.7674C20.7989 10.6777 21.4079 10.7689 22.0963 10.6789C23.2871 10.6789 21.1984 10.6345 28.3332 10.6345C28.334 10.6104 28.334 10.5901 28.2856 10.546Z" fill="#043F6D"/>
<path d="M49.222 1.32694C48.741 1.05628 48.1581 1.10453 47.5791 1.10453C38.1801 1.10453 37.7154 1.13806 37.7154 1.32622C37.7152 2.09637 37.6667 2.86588 37.5701 3.63093C37.5516 3.64185 37.5373 3.6578 37.5292 3.67656C37.5211 3.69532 37.5196 3.71593 37.525 3.73549C37.5303 3.75506 37.5422 3.7726 37.559 3.78565C37.5758 3.79869 37.5966 3.80659 37.6185 3.80823C40.3314 3.95032 43.7457 3.81764 47.966 3.76385C48.401 3.7583 48.8847 3.76385 49.2712 3.49849C50.2247 3.01266 50.2776 1.9194 49.222 1.32694Z" fill="#100259"/>
<path d="M49.512 10.9447C49.077 10.5459 47.4812 10.4572 47.4812 10.6345C47.4812 11.3437 47.4812 12.9836 47.5781 13.0721C47.7071 13.1479 47.8612 13.1793 48.0131 13.1609C48.3224 13.1733 48.632 13.1433 48.9318 13.0721C49.1745 13.0109 49.3957 12.893 49.5737 12.7298C49.7518 12.5667 49.8805 12.3639 49.9473 12.1414C49.9759 11.9249 49.9517 11.7052 49.8765 11.4982C49.8012 11.2913 49.6767 11.1022 49.512 10.9447Z" fill="#100259"/>
<path d="M47.0944 10.1914C46.3049 9.10582 44.6633 9.34922 43.5649 9.34922C42.9362 9.34922 42.2593 9.34922 41.6307 9.30484C37.6122 9.30484 35.7096 9.11523 34.9098 9.48214C34.7427 9.53388 34.5884 9.61531 34.4556 9.72177C34.3229 9.82823 34.2143 9.95764 34.1361 10.1026C34.0637 10.2265 34.013 10.3601 33.9861 10.4984C33.324 10.4972 32.9951 10.4837 32.9274 10.5467V10.6796C32.9937 10.735 33.0796 10.7664 33.1693 10.7681C33.6414 10.7681 33.8427 10.7812 33.9477 10.7826C33.9314 11.0103 33.9427 11.2376 33.9427 11.4339C33.9045 11.984 33.9513 12.5362 34.0817 13.0743C33.2635 13.0743 33.1974 13.0613 33.0724 13.1187L33.079 13.296C33.1053 13.3201 32.9574 13.296 34.1714 13.296C34.2406 13.446 34.3414 13.5819 34.4682 13.696C34.5949 13.8101 34.745 13.9001 34.9098 13.9608C35.4319 14.1203 35.7659 14.0937 38.0043 14.0937C39.9106 14.0937 41.1622 14.0455 41.4372 14.0496C41.4565 14.0496 41.475 14.0426 41.4886 14.0301C41.5022 14.0176 41.5099 14.0007 41.5099 13.983C41.5099 13.9653 41.5022 13.9484 41.4886 13.9359C41.475 13.9234 41.4565 13.9164 41.4372 13.9164C41.1478 13.9164 40.8088 13.8723 40.5185 13.8723H37.5209C36.6988 13.8723 35.5867 14.0496 34.8614 13.695C34.6579 13.5789 34.4922 13.4147 34.3816 13.2198C34.2711 13.0248 34.2197 12.8062 34.233 12.5868C34.1846 11.9219 34.088 11.0357 34.2811 10.3706C34.3481 10.1975 34.4652 10.0443 34.6198 9.92745C35.2717 9.32992 36.6814 9.48431 44.7252 9.48431C45.3538 9.48431 45.9823 9.48431 46.466 9.79453C46.6971 9.93909 46.8787 10.1407 46.99 10.376C47.1012 10.6114 47.1374 10.8708 47.0944 11.1242C47.1428 11.1686 47.1428 11.1686 47.1912 11.1242C47.2605 10.9735 47.2879 10.8094 47.271 10.6466C47.2541 10.4838 47.1934 10.3274 47.0944 10.1914Z" fill="#043F6D"/>
<path d="M36.6506 10.8562C36.2559 11.9386 36.7472 12.9923 36.7472 12.5846C36.8064 12.4218 36.864 10.4642 36.6506 10.8562Z" fill="#043F6D"/>
<path d="M38.4877 10.723C38.3959 11.0181 38.4396 11.2132 38.4396 12.1858C38.4396 12.4584 38.4617 12.5846 38.6812 12.5846C38.8167 12.5019 38.778 12.4343 38.778 11.6983C38.778 10.2676 38.4299 10.723 38.4877 10.723Z" fill="#043F6D"/>
<path d="M40.712 12.5846C40.7972 12.4676 40.6896 10.1439 40.3736 10.7231C40.3999 10.7231 40.2896 12.973 40.712 12.5846Z" fill="#043F6D"/>
<path d="M42.2594 10.7675C42.2062 11.2534 42.19 11.7421 42.2109 12.23C42.2109 12.3632 42.2109 12.5846 42.3078 12.6734C42.3559 12.7178 42.4394 12.7159 42.4528 12.6734C42.495 12.514 42.5113 12.3497 42.5009 12.1859C42.5212 11.6966 42.4889 11.2066 42.4044 10.7231C42.4044 10.6789 42.2594 10.6789 42.2594 10.7675Z" fill="#043F6D"/>
<path d="M44.3383 10.8119C44.3383 10.836 44.1849 12.404 44.4836 12.629C44.8352 12.8932 44.6649 11.4292 44.6328 11.248C44.4957 10.4732 44.3423 10.7154 44.3383 10.8119Z" fill="#043F6D"/>
<path d="M26.4966 1.59276C26.3195 2.08004 26.4629 2.07111 26.3516 2.47928C26.3516 2.74463 26.3032 3.09972 26.4482 3.32141C26.4966 3.40994 26.5934 3.36555 26.5934 3.32141C26.6542 3.154 26.6416 3.08018 26.6416 2.0359C26.6416 1.90298 26.5934 1.77054 26.5934 1.59276C26.6416 1.54837 26.545 1.50398 26.4966 1.59276Z" fill="#043F6D"/>
<path d="M28.334 1.45982C28.2334 1.94153 28.201 2.43309 28.2374 2.9224C28.2374 3.05532 28.2374 3.27701 28.3824 3.32139H28.479C28.624 3.23262 28.5758 3.05604 28.5758 2.9224C28.6113 2.43308 28.5788 1.94162 28.479 1.45982C28.4306 1.41544 28.334 1.37105 28.334 1.45982Z" fill="#043F6D"/>
<path d="M32.1053 1.50398C32.0523 1.98997 32.0362 2.47876 32.0572 2.9668C32.0572 3.09972 32.0572 3.32141 32.1538 3.40994C32.2022 3.45432 32.2953 3.45818 32.3095 3.415C32.3481 3.25335 32.3608 3.08741 32.3472 2.92241C32.3675 2.43316 32.3351 1.94327 32.2506 1.45984C32.2506 1.41545 32.1053 1.41545 32.1053 1.50398Z" fill="#043F6D"/>
<path d="M34.1843 1.54838C34.1843 1.5725 34.0153 3.78651 34.4738 3.36556C34.6359 3.14315 34.4122 1.79974 34.3288 1.50399C34.3067 1.42294 34.1843 1.45985 34.1843 1.54838Z" fill="#043F6D"/>
<path d="M34.4264 20.0752C34.3885 20.3184 34.4103 21.8087 34.6198 21.9368C34.6283 21.9471 34.6392 21.9555 34.6518 21.9612C34.6644 21.967 34.6783 21.9699 34.6923 21.9699C34.7064 21.9699 34.7202 21.967 34.7328 21.9612C34.7454 21.9555 34.7564 21.9471 34.7648 21.9368C34.9182 21.7257 34.6669 20.2267 34.6198 20.0752C34.6198 19.9865 34.4738 19.9865 34.4264 20.0752Z" fill="#043F6D"/>
<path d="M36.3119 20.1638C36.2589 20.6497 36.2428 21.1384 36.2638 21.6264C36.2638 21.7596 36.2638 21.981 36.3604 22.0698C36.4088 22.1139 36.5054 22.1139 36.5054 22.0698C36.6022 21.9369 36.5538 21.7596 36.5538 21.5823C36.5741 21.0929 36.5417 20.603 36.4572 20.1194C36.4572 20.0309 36.3119 20.0753 36.3119 20.1638Z" fill="#043F6D"/>
<path d="M38.7296 21.4935C38.7156 21.0304 38.6508 20.5697 38.5362 20.1185C38.5056 20.0278 38.4159 20.0664 38.3912 20.1629C38.3528 20.3229 38.3365 20.4867 38.3428 20.6504C38.3428 21.122 38.3101 21.3898 38.3428 21.5671C38.3441 21.6442 38.3619 21.7203 38.3954 21.7911C38.4288 21.8619 38.4771 21.9259 38.5375 21.9796C38.5459 21.9899 38.5569 21.9983 38.5694 22.0041C38.582 22.0099 38.5959 22.0129 38.61 22.0129C38.6241 22.0129 38.6379 22.0099 38.6505 22.0041C38.6631 21.9983 38.6741 21.9899 38.6825 21.9796C38.778 21.8481 38.7296 21.6708 38.7296 21.4935Z" fill="#043F6D"/>
<path d="M32.6856 20.6957C32.6856 20.9174 32.6372 21.1388 32.6372 21.3605V21.848C32.6372 21.9368 32.734 21.981 32.8306 21.981C33.1777 21.981 32.9111 21.1943 32.8306 20.7401C32.8061 20.6016 32.6856 20.6513 32.6856 20.6957Z" fill="#043F6D"/>
<path d="M23.7895 1.23812C23.5831 1.19693 23.3716 1.18199 23.1608 1.19374C22.1447 1.21593 21.0818 1.10521 20.0663 1.23812C19.7315 1.29549 19.4261 1.45101 19.196 1.68126C18.998 1.91612 18.8905 2.20459 18.8905 2.50145C18.8905 2.7983 18.998 3.08677 19.196 3.32163C19.7939 4.02915 21.1039 3.76477 22.484 3.76477C22.8704 3.74257 23.258 3.74257 23.6445 3.76477C23.6744 3.7619 23.7021 3.74899 23.7222 3.72852C23.7423 3.70805 23.7534 3.68147 23.7534 3.65392C23.7534 3.62637 23.7423 3.59979 23.7222 3.57932C23.7021 3.55885 23.6744 3.54594 23.6445 3.54308C23.3547 3.52245 23.0637 3.52245 22.774 3.54308C22.4361 3.59132 22.0487 3.58746 21.7103 3.63185C20.6895 3.63185 20.1555 3.67889 19.7279 3.45454C19.4697 3.30384 19.2852 3.06735 19.2131 2.79468C19.141 2.52201 19.1868 2.23433 19.341 1.99197C19.6305 1.54859 20.2113 1.46006 20.7434 1.46006C21.5653 1.41567 22.3874 1.5042 23.2092 1.46006C23.4199 1.46737 23.6309 1.45248 23.8379 1.41567C23.8374 1.3269 23.8374 1.28251 23.7895 1.23812Z" fill="#043F6D"/>
<path d="M30.3372 1.49333C30.326 1.55552 30.3191 1.61827 30.3164 1.68124C30.3164 2.08748 30.3011 2.15478 30.3648 2.21316C30.4537 2.29469 30.5582 2.09254 30.5582 2.03585C30.5753 1.85591 30.5647 1.67466 30.5266 1.49743C30.5093 1.44412 30.3501 1.42723 30.3372 1.49333Z" fill="#043F6D"/>
<path d="M13.7802 14.2247C13.8289 14.2901 13.8936 14.3442 13.9691 14.3826C14.0446 14.421 14.1289 14.4428 14.2152 14.4462C14.4571 14.4462 14.5047 14.5791 14.3602 14.6678C14.2507 14.7182 14.1242 14.7279 14.0072 14.6949C13.8901 14.6619 13.7914 14.5886 13.7318 14.4905C13.5649 14.2515 13.5868 14.0474 13.7802 14.2247Z" fill="#043F6D"/>
<path d="M13.1999 11.4774C13.1235 11.4681 13.0458 11.4801 12.9769 11.5117C12.9079 11.5433 12.8509 11.5931 12.8131 11.6547C12.6681 11.832 12.547 11.7917 12.5712 11.6103C12.578 11.4987 12.6327 11.3942 12.7234 11.3195C12.814 11.2447 12.9332 11.2059 13.0549 11.2115C13.3947 11.2108 13.4415 11.4323 13.1999 11.4774Z" fill="#043F6D"/>
<path d="M13.0065 12.1415C13.0065 12.2003 13.0473 12.2567 13.1198 12.2982C13.1924 12.3398 13.2908 12.3632 13.3934 12.3632C13.496 12.3632 13.5944 12.3398 13.6669 12.2982C13.7394 12.2567 13.7802 12.2003 13.7802 12.1415C13.7802 12.0827 13.7394 12.0263 13.6669 11.9847C13.5944 11.9432 13.496 11.9198 13.3934 11.9198C13.2908 11.9198 13.1924 11.9432 13.1198 11.9847C13.0473 12.0263 13.0065 12.0827 13.0065 12.1415Z" fill="#043F6D"/>
</svg>
