<svg width="45" height="40" viewBox="0 0 45 40" fill="none" xmlns="http://www.w3.org/2000/svg">
<path d="M40.6291 26.547C42.3586 25.2334 42.3008 22.8175 42.2498 22.7394C42.9143 22.0505 42.9328 20.0525 42.7407 19.6414C42.4813 19.0834 43.639 14.1642 41.7497 12.7932C41.9164 12.7197 42.2336 12.5314 42.2568 12.2857C42.2984 11.8011 41.8377 11.723 41.4858 11.5163C40.0156 10.6597 39.923 8.76051 37.0427 8.05777C36.9362 7.86257 36.9131 7.82812 36.8274 7.68574C38.9112 7.82812 38.6426 6.69594 38.2837 6.41576C38.0578 6.28619 37.8157 6.18659 37.5637 6.11951C38.4412 5.75437 38.4157 4.65893 37.2858 4.75997C37.1516 4.77146 37.5868 4.41779 37.2326 3.96538C37.1529 3.84335 37.0405 3.7458 36.908 3.68372C36.7754 3.62165 36.6281 3.5975 36.4824 3.61401C36.4824 2.84468 36.1097 2.53235 35.6675 2.53235C36.3181 1.58618 35.4498 0.532083 34.232 1.11769C34.5214 0.451705 33.7504 -0.747078 31.9838 0.642315C31.8727 0.160047 30.3353 -0.342891 30.1686 0.36214C30.083 0.722694 29.4741 -0.285478 28.3627 0.541269C28.0594 0.770921 27.8997 1.14985 28.2562 1.26927C27.1518 1.34964 26.7281 2.3693 27.5848 2.58976C27.77 2.63799 27.2329 2.762 27.3185 3.44636C27.3834 3.96997 27.851 4.27082 28.2331 3.98375C28.3604 3.88959 28.3234 3.86892 28.3118 3.96767C28.3086 4.00643 28.3134 4.04541 28.3258 4.0823C28.3381 4.11918 28.3579 4.15322 28.3838 4.18237C28.4098 4.21152 28.4413 4.23519 28.4767 4.25197C28.5121 4.26874 28.5505 4.27828 28.5896 4.28C28.6246 4.48116 28.6781 4.67872 28.7494 4.87021C27.9112 4.87021 27.4135 5.58672 27.6357 5.93579C27.8927 6.33538 28.3442 6.06899 27.7793 6.35835C26.6841 6.921 26.9597 7.85338 27.6311 7.8465C28.3025 7.83961 27.8626 7.59388 27.9668 8.25987C28.0316 8.6985 28.7494 9.12795 29.356 8.57679C29.5273 8.78118 29.562 8.91208 29.7704 9.01772C28.0316 10.166 28.6382 10.724 26.3832 12.9792C26.1215 13.2433 26.0451 13.1446 25.9201 13.2663C25.7951 13.388 25.9664 14.1183 26.6147 14.0655C25.9039 16.1323 26.6147 15.4962 25.5867 15.6041C25.5635 15.6041 25.8576 12.5888 25.8182 12.1731C25.7951 11.9687 25.7534 11.9733 23.4288 12.4992C23.5052 10.9606 23.489 7.7799 23.3548 7.74775C23.3316 7.74775 21.6576 7.74775 21.6576 7.70411C21.6206 7.55713 21.7294 6.92559 21.6993 6.80617C21.6715 6.72809 21.5789 6.73039 21.5048 6.68216C20.6065 6.08966 21.7364 6.41347 21.822 6.3262C21.9471 6.18841 21.822 4.79901 22.0536 4.79901C22.2851 4.92073 22.0999 6.08277 22.1878 6.193C22.4726 6.44103 22.2781 5.12971 22.5861 5.16646C22.7551 5.19861 22.5629 6.14477 22.6278 6.30094C22.8384 6.59948 22.7644 5.84163 23.0144 5.59591C23.3061 5.45582 23.0005 7.66277 22.9681 7.7087C23.0862 7.80056 23.6048 5.03096 22.9241 5.4673C22.725 5.59591 22.9241 5.41218 22.7782 5.10675C22.6972 4.94829 22.4657 4.92303 22.336 5.14809C22.2133 4.3443 21.8081 4.53951 21.7456 5.10445C21.6854 6.17004 21.7109 6.00928 21.6924 6.19989C21.0788 5.97024 20.6204 6.50992 21.521 6.81995C21.6623 6.86818 21.521 7.37801 21.565 7.66966C21.565 7.71789 21.5905 7.70181 21.4701 7.69033C20.9746 7.63981 19.4929 11.8447 19.0367 12.4487C19.6688 13.3673 19.4581 13.5028 19.4002 13.3512C18.7728 12.0652 16.1588 9.37138 13.2532 8.39766C13.0216 8.32417 13.0772 8.39766 13.0216 8.09911C12.8526 7.85338 15.323 9.11417 15.1054 5.41678C16.1496 5.45123 15.9968 3.82988 15.1239 3.78395C15.7004 3.08351 15.5198 2.50709 14.9387 1.89392C14.6817 0.0567035 12.6905 0.015366 10.9193 0.68595C10.5003 0.844409 10.4262 1.09243 10.2109 1.45988C10.0025 1.49203 9.90756 1.34275 9.5047 1.57241C8.27991 2.27284 8.57859 4.25244 9.59268 5.05163C9.40977 5.57753 9.56953 6.16085 10.2595 6.11262C10.2595 8.31269 10.4609 7.80286 9.40514 7.98429C1.88046 9.27723 -0.221824 18.3255 3.04042 21.3294C3.22101 21.497 2.42918 22.62 3.84151 23.4169C3.88675 24.437 4.13212 25.4386 4.56388 26.3656C4.8857 27.0546 4.89728 26.9053 4.86486 27.0063C3.48958 31.3468 0.868676 39.0952 0.827001 39.2789C0.676508 39.9426 1.33405 40.1355 1.63735 39.6257C1.77164 39.3961 5.47842 29.4521 5.95536 28.1569C6.17124 28.3272 6.39615 28.4859 6.62911 28.6323C6.52956 30.3983 5.95999 38.048 6.06187 38.4889C6.08089 38.5962 6.13548 38.6942 6.21698 38.7672C6.29848 38.8402 6.40222 38.8842 6.51175 38.8921C6.62129 38.9 6.73035 38.8714 6.82166 38.8108C6.91296 38.7503 6.98127 38.6613 7.01577 38.5578C7.0505 38.443 7.79139 33.3884 8.24055 29.4338C10.9031 30.5108 13.92 30.6417 14.464 30.6486C14.9271 39.814 14.8576 39.2629 15.8347 38.9827C16.006 38.9322 16.0107 38.9827 16.0384 37.8964C16.5015 38.2914 18.539 39.8783 19.1571 39.9978C19.3424 40.0322 19.5137 39.6648 19.2706 39.2399C17.8583 36.7757 17.7031 37.9125 19.002 36.2843C19.1479 36.6357 19.7128 38.0641 19.9281 38.0985C20.4722 38.1582 20.2638 39.3318 20.5972 39.3432C21.19 39.3662 24.2623 39.1549 24.5031 38.8173C24.605 38.6773 24.3851 38.3764 24.1026 38.2501C21.0372 37.1409 22.2851 39.2078 22.0512 32.6971C22.0512 32.5318 23.3733 31.0138 24.003 29.0847C24.3526 28.0122 24.003 27.5483 24.1767 27.0178C24.5587 25.7662 23.8826 26.028 25.2741 25.9568C25.5705 26.5264 25.7904 26.1865 25.9525 26.8754C26.1168 27.613 26.4601 28.2997 26.9527 28.8757C27.043 27.8243 27.2766 26.7898 27.6473 25.8007C27.8788 25.78 27.6172 25.5572 27.0893 29.0158C27.1102 29.0388 27.0222 35.3175 27.2977 35.4461C27.5143 35.5149 27.7395 35.5535 27.9668 35.5609C27.9112 35.6045 27.9483 37.1179 27.9228 37.1179C27.9228 37.1753 26.0474 37.7793 25.8391 38.714C25.8113 38.9184 25.8066 39.0034 26.022 39.0034C26.7374 38.9643 29.143 38.3695 29.3004 38.3695C29.3004 38.6244 29.2611 38.6451 29.5042 38.6428C29.7102 38.6428 29.9672 38.6428 30.0344 38.5487C30.0969 38.3948 29.9533 35.9306 29.9904 35.6436C29.9904 35.6206 29.951 35.6436 30.5159 35.6436C30.5391 38.9207 30.5646 38.6107 30.7961 38.6773C31.7847 38.8449 31.6041 39.0608 31.9537 33.3149C32.8474 34.1187 32.4492 34.1279 33.5744 33.4113C33.7272 33.602 34.5006 34.5091 34.5006 34.516C34.1301 35.2325 33.4865 36.6104 34.0514 37.2098C34.2111 37.3453 34.3987 37.0973 35.9893 35.0143C36.6144 34.1922 36.288 34.973 36.6607 34.6561C37.3345 34.0842 37.1238 34.4264 35.2715 32.2906C36.3574 31.5121 36.2393 31.7326 35.3804 30.9288C30.6988 26.5356 32.389 29.5762 38.3185 27.631C38.462 29.11 39.5502 38.28 39.7701 38.4384C39.9206 38.5464 40.4184 38.4843 40.5736 38.4155C40.8398 38.296 40.5087 35.0074 40.0225 29.0503C41.9789 34.3506 43.933 39.4213 43.933 39.4443C44.1923 39.9886 44.8383 39.8806 44.8036 39.341C44.7966 39.3501 41.2936 28.6736 40.6291 26.547ZM36.5311 34.5343C36.4222 34.4218 36.3968 34.3368 36.2995 34.369C36.1166 34.4608 34.3825 36.8952 34.1324 37.0513C33.6184 36.2981 34.6811 34.5895 34.6279 34.4838C34.5955 34.4402 35.2808 34.2542 36.0541 33.3746C36.9385 34.3897 36.9247 34.2128 36.5287 34.5343H36.5311ZM35.9592 33.2529C35.5779 33.7291 35.1059 34.1263 34.57 34.4218C33.8754 33.6594 33.7805 33.5468 33.6439 33.3815C35.5494 32.185 34.952 32.0817 35.9569 33.2529H35.9592ZM42.1827 22.8795C42.1433 24.6455 41.4742 25.7731 40.5898 26.423C39.7586 23.766 39.9808 24.572 40.0989 23.7017C42.4142 23.0839 42.185 22.6246 42.1804 22.8795H42.1827ZM42.5369 19.3337C42.053 18.7986 41.3075 18.6447 40.6152 18.4863C41.1917 18.1946 41.8701 17.8318 42.0414 17.377C42.273 16.6238 41.9187 14.8118 41.7752 14.3709C41.1802 12.5222 40.7912 13.1101 41.5437 12.8736C43.0671 13.8932 42.6944 17.0234 42.5346 19.3337H42.5369ZM33.4818 19.3704C32.1343 19.5243 32.8636 19.8435 32.5557 20.0226C32.3381 20.1466 32.264 20.4062 32.6159 20.4819C32.8752 20.5394 32.8474 20.4819 32.727 20.5577C32.4677 20.7116 32.4006 21.0836 33.3707 20.9872C33.2596 21.1985 32.7016 22.2617 32.5488 22.4501C32.4932 22.519 28.6984 22.2847 26.1933 21.9908C26.2141 21.9678 28.6498 18.9249 29.2402 18.4036C29.2958 18.3783 33.4077 18.8629 33.4309 18.8629C33.3851 19.0324 33.4024 19.2125 33.4795 19.3704H33.4818ZM32.771 20.8149C32.5974 20.5853 33.7643 20.6381 33.5003 20.3878C33.4772 20.374 31.2499 20.2661 33.593 20.0089C33.6143 20.0041 33.6332 19.9917 33.646 19.9742C33.6589 19.9566 33.6649 19.935 33.6629 19.9134C33.6609 19.8918 33.6511 19.8716 33.6353 19.8566C33.6194 19.8417 33.5986 19.8329 33.5768 19.832C33.16 19.8435 32.9007 19.9193 32.8173 19.832C32.6807 19.5679 33.4656 19.5702 33.5976 19.522C33.8291 19.46 33.41 19.0627 33.6323 18.833C33.7481 18.7297 34.0838 19.3888 34.1324 19.4324C34.8062 19.8757 37.4711 15.8062 39.0987 15.6547C39.5016 15.6156 38.4041 15.5674 37.955 15.9968C37.0288 13.3972 37.052 13.489 37.0589 13.388C37.089 12.9884 37.5428 12.8185 37.9341 12.8828C38.3254 12.9471 38.4088 13.1997 38.8301 13.202C39.0457 13.2031 39.2593 13.1612 39.4581 13.0787C39.657 12.9962 39.8371 12.8749 39.9878 12.722C40.2857 12.8452 40.603 12.9159 40.9255 12.931C41.4487 14.0425 41.6316 14.1504 41.8308 15.4158C41.9349 16.0749 42.1479 17.191 41.6803 17.6205C40.6963 18.5253 34.1023 21.2674 32.7687 20.8149H32.771ZM34.0051 18.9249C34.4681 18.9846 34.3987 18.9249 34.3084 19.1247C34.1857 19.3796 34.2713 19.2992 34.0028 18.9249H34.0051ZM29.0527 6.8567C27.8418 6.48466 29.1082 5.0746 29.0527 5.52242C29.0527 5.54538 28.9855 5.56605 28.967 5.57753C28.7355 5.70844 28.4438 6.72579 29.4717 6.76713C30.0274 6.79239 29.4115 6.96922 29.0527 6.8567ZM29.1082 5.47878C28.761 4.56018 28.7471 4.70486 28.6707 4.28459C29.1337 4.23177 29.6338 4.26852 29.3328 4.09628C29.1684 4.00212 29.0064 4.11236 29.0805 4.05035C29.775 3.39584 29.5273 2.73904 29.6662 3.095C29.733 3.25239 29.8389 3.39047 29.974 3.49639C30.109 3.60231 30.2689 3.67263 30.4387 3.70082C30.6085 3.72901 30.7828 3.71414 30.9452 3.65761C31.1077 3.60108 31.2531 3.50471 31.368 3.37747C31.5625 3.88959 31.7801 4.15599 32.3936 4.2157C32.8034 4.25474 32.7386 4.20422 32.8937 4.05035C33.4888 3.46014 34.0514 4.62448 33.329 4.96896C33.0651 5.06082 33.4425 6.24123 34.1486 5.94038C34.6765 5.71073 34.533 4.62448 33.9449 4.58084C33.7272 4.56477 33.8384 4.50965 33.8731 4.50506C34.6372 4.39712 34.9613 5.70614 34.2852 6.07817C33.6647 6.42036 32.9215 5.70614 33.1994 4.99192C32.7016 5.05852 32.7039 5.70384 32.9678 6.1287C33.0002 6.17922 31.9283 6.22056 32.0278 6.99678C32.095 7.33207 32.4909 7.40786 32.8312 7.40097C32.1065 9.07743 33.0303 9.31167 33.8314 8.51478C33.8975 8.72645 33.9925 8.92813 34.1139 9.11417C34.4913 9.58955 30.4395 10.7769 30.5576 8.92586C30.786 8.79834 31.0029 8.65159 31.2059 8.48722C31.2362 8.25811 31.2307 8.02573 31.1897 7.79827C31.0855 7.19888 30.0784 8.04629 29.099 5.47419L29.1082 5.47878ZM31.9769 13.3719C31.5138 13.0183 30.8192 10.3681 30.685 9.73194C32.4515 10.7654 34.0444 9.40813 33.9541 9.60333C33.6833 10.1683 32.2501 12.97 31.9676 13.3673L31.9769 13.3719ZM32.1552 14.9358C31.3101 15.03 31.0924 13.9024 31.7407 13.6268C33.0049 13.1629 33.3753 14.7958 32.1552 14.9358ZM30.127 9.13255C30.127 9.13255 30.3353 9.02691 30.4766 8.94882C30.4534 9.47013 30.7012 9.56429 30.127 9.12795V9.13255ZM26.0891 13.698C25.7742 13.2249 26.1864 13.5074 27.2167 12.3615C28.0201 11.4704 28.8605 9.5574 29.8816 9.14632C29.9394 9.19685 30.2497 9.43798 30.546 9.64237C30.7197 10.7562 31.3101 12.8575 31.7454 13.3995C31.7662 13.4247 30.7151 13.76 31.4328 14.8509C32.6923 15.8522 33.7249 13.7026 32.3126 13.4156C31.9815 13.3513 32.1644 13.7968 33.7527 10.2877C34.2158 9.25426 33.9727 9.59874 34.3616 9.30938C34.6973 9.4908 35.6304 9.55281 35.6304 8.56071C36.4176 9.20603 37.4062 8.96031 37.1469 8.27135C39.5085 8.90749 39.7933 10.3015 40.8745 11.2844C41.5691 11.9228 42.1294 11.8539 42.0739 12.2627C42.0739 12.4625 41.4024 12.9769 40.3605 12.6876C40.004 12.5888 39.9646 12.5153 39.8975 12.598C39.7425 12.7644 39.5496 12.8917 39.3349 12.9692C39.1203 13.0467 38.89 13.0722 38.6634 13.0435C38.4666 12.993 38.3555 12.8759 38.0777 12.7771C37.7003 12.6692 37.1516 12.7771 36.9825 13.1675C36.4361 10.9858 36.5866 10.6965 36.4616 10.5725C35.9754 11.0639 37.5938 15.4457 37.8137 16.1117C37.4201 16.3413 36.4014 17.3449 36.0796 17.6641C35.9985 17.7445 34.3153 17.3633 28.7239 17.3357C29.2055 16.3827 30.0089 15.7764 30.0506 15.6615C30.0645 15.5858 29.1082 14.6327 29.2842 13.5809C29.5505 11.9733 30.2451 11.0869 29.951 11.351C29.3953 12.2099 28.9624 13.1721 29.1777 14.1872C29.0785 14.2579 28.9638 14.3042 28.843 14.3221C28.7222 14.3401 28.5988 14.3293 28.4831 14.2905C28.0201 14.1183 27.9089 13.4201 26.6772 13.9231C26.5678 13.9529 26.4516 13.9472 26.3458 13.9067C26.2399 13.8661 26.15 13.793 26.0891 13.698ZM26.7582 14.0517C27.1796 13.9805 27.5038 13.822 27.7839 13.9943C28.0154 14.1367 28.4553 14.7935 29.1962 14.3801C29.4 14.6763 29.3282 15.1242 29.8422 15.6386C27.6774 17.7606 28.9925 18.3668 25.3181 18.314C25.3737 17.7514 25.501 16.4056 25.5635 15.6822C26.698 15.549 25.9641 16.3 26.7582 14.0517ZM25.6237 12.2351C25.6237 13.2869 25.1398 18.3967 25.0218 19.4416C23.9266 19.8045 16.7353 21.8093 14.2418 22.1974C14.2927 20.7116 14.7326 16.3298 15.1355 14.8968C16.3765 14.2905 24.4221 12.4097 25.6237 12.2351ZM9.18519 19.8848C9.87978 19.4255 13.3666 18.67 14.4339 18.4266C14.4339 18.4817 14.3946 18.7618 14.3876 18.817C8.80085 19.9491 9.91914 20.1995 9.19214 19.8848H9.18519ZM15.4365 9.57118C14.1168 12.6141 14.0473 11.7161 15.2304 12.0813C15.3531 12.1203 13.531 15.9394 13.524 16.0657C13.2439 21.5544 13.3527 14.8899 13.8991 9.40583C13.9755 8.65028 13.6699 8.5056 15.4388 9.57118H15.4365ZM13.9362 17.5217C13.9362 17.5461 13.9264 17.5695 13.909 17.5867C13.8917 17.6039 13.8681 17.6136 13.8436 17.6136C13.819 17.6136 13.7954 17.6039 13.7781 17.5867C13.7607 17.5695 13.7509 17.5461 13.7509 17.5217C13.7486 17.0027 13.9362 16.7317 13.9362 17.5217ZM13.0772 8.42292C14.1353 8.78347 13.8852 8.47115 13.7208 10.1522C13.7208 10.104 13.5055 9.97766 13.01 9.47702C13.2323 9.27723 13.1351 8.71458 13.0772 8.42292ZM13.105 10.7562C13.2624 10.7171 13.2856 10.2969 13.2995 10.0075C13.8227 10.4898 13.7116 10.1315 13.5958 11.4842C13.2856 10.6781 13.2879 10.7263 13.2462 10.708C13.1883 10.8228 12.8804 10.9652 12.7206 10.8389C12.7044 11.0019 12.7924 12.8828 12.8063 13.4133C9.02081 6.82454 11.5074 11.7483 12.2367 10.4163C12.9105 10.8343 12.672 10.8641 13.1096 10.7562H13.105ZM15.1309 3.91256C15.8254 3.89878 15.9319 5.20779 15.1609 5.23765C14.39 5.2675 14.3714 3.92634 15.1309 3.91256ZM14.4664 3.01921C14.5219 3.20064 14.6238 3.57038 14.6979 3.90796C14.3298 4.2134 14.559 4.45913 14.2858 4.50047C14.2348 4.37186 14.2348 4.29837 14.1654 4.37186C14.1654 4.56247 14.2279 4.50965 13.9686 4.55788C13.531 4.63596 13.8574 4.59003 13.5912 4.28689C13.4969 4.16935 13.3719 4.07975 13.2298 4.02789C13.0876 3.97603 12.9339 3.96389 12.7853 3.9928C12.6367 4.02171 12.4989 4.09056 12.3871 4.19183C12.2752 4.2931 12.1936 4.4229 12.1511 4.56707C11.9496 4.56707 11.3268 4.5441 11.225 4.52803C11.086 4.12154 10.836 2.67244 10.8337 2.65407C12.5678 3.71965 14.0241 3.39125 14.4664 3.01921ZM13.6329 5.08608C13.4893 5.51323 12.5701 5.6671 12.3386 4.98274C11.9705 3.91256 14.0751 3.74951 13.6282 5.08608H13.6329ZM9.87978 5.93809C9.57879 5.78422 9.50239 4.85872 10.0303 4.78983C10.3729 4.74849 10.5558 5.12512 10.6924 5.18713C11.0444 5.34329 11.262 5.12512 11.262 4.73931H12.1233C12.0747 5.93349 13.9755 5.88756 13.7741 4.75997C14.3529 4.73471 14.0913 4.36727 14.3738 5.60969C14.1885 5.69925 13.8736 5.74059 13.8598 5.79111C13.9246 5.89216 14.5543 5.83474 14.5543 5.59131C14.4826 5.17564 14.4293 4.92532 14.3923 4.78753C14.4339 4.91603 14.5019 5.03459 14.5919 5.13577C14.682 5.23694 14.7921 5.31855 14.9155 5.37544C14.9294 5.55227 14.9317 5.68547 14.9364 5.91972C15.0081 8.72606 12.8526 7.66048 12.8248 7.98658C12.8248 8.10141 13.1003 9.13484 12.9059 9.31627C12.3317 9.17848 10.4794 8.00955 10.4216 7.85798C10.4192 5.21928 10.4146 6.20908 9.87978 5.93809ZM12.5238 9.38287C12.3539 9.79881 12.1519 10.2011 11.9195 10.5862C10.3799 9.56429 10.2039 8.9649 9.67603 8.04629C10.9193 7.83501 9.67372 8.06696 12.5238 9.38516V9.38287ZM9.51396 8.11519C13.8389 15.464 13.3967 14.1803 13.3133 15.3722C12.7438 15.0231 9.67603 13.1078 9.29864 12.8047C9.38894 12.5383 10.2965 11.7161 10.3475 11.5646C10.3984 11.413 7.59459 8.64798 7.60385 8.64568C8.22151 8.41978 8.85638 8.24315 9.50239 8.11749L9.51396 8.11519ZM6.173 18.4495C6.55039 18.5391 6.46241 18.6011 6.54345 18.4702C7.54597 16.8626 8.00208 13.8496 8.04607 13.8129C8.18036 13.9759 7.83769 16.6973 6.68931 18.4059C6.47167 18.7297 6.46936 18.4059 7.10143 19.1431C8.90967 18.7044 12.0376 18.3806 14.4803 18.1257C14.4803 18.1854 14.4617 18.2819 14.4548 18.3554C12.8688 18.67 7.95114 19.4577 8.96987 20.4406C9.28938 20.7093 13.994 22.5075 14.2233 22.2778C16.6103 21.9747 24.5494 19.8412 25.1329 19.6001C25.1954 19.5587 25.1885 19.6552 25.3042 18.4771C26.6749 18.523 27.1565 18.7067 28.0154 18.0844C28.2647 17.9056 28.4889 17.6948 28.6822 17.4574C30.9628 17.485 33.667 17.5745 35.9407 17.8295C33.6578 20.1466 34.9682 18.8996 34.3663 18.8193C33.3545 18.6815 29.2009 18.3025 29.2263 18.3416C29.1615 18.252 26.1609 21.6784 25.9849 21.9953C25.809 22.3123 32.5094 22.7532 32.653 22.6039C32.7965 22.4547 33.4564 21.1985 33.5791 20.9757C34.7552 20.8241 36.3574 20.6037 40.3976 18.608C43.8937 19.4761 42.7893 21.0905 41.0922 21.7221C40.4995 21.9517 34.8108 23.5822 27.1449 24.1495C13.1281 25.1852 4.71205 22.3123 5.16585 22.3123C5.2793 22.3123 5.33024 22.1653 5.52704 21.8024C6.51798 22.6682 9.03238 23.4307 8.40957 22.6315C8.53853 22.6504 8.66958 22.6504 8.79854 22.6315C9.04396 22.5764 9.06017 22.3444 8.86337 22.1722C8.76381 22.0872 8.74992 22.1148 8.8379 22.1079C9.22224 22.0803 9.24539 21.7841 8.94672 21.6164C8.54386 21.3868 7.83538 21.412 7.63163 21.0446C7.48345 20.7782 8.01134 20.5095 7.82843 20.2178C7.70109 20.0157 7.49735 20.0984 7.29823 20.2316C6.89537 20.5095 7.04123 20.5325 6.75182 20.2684C7.27971 19.9032 7.44641 20.0823 7.36074 19.8228C7.26169 19.536 7.09546 19.2765 6.87571 19.0657C6.65596 18.855 6.38895 18.6989 6.0966 18.6103C4.17259 18.2199 3.4919 19.5289 3.4317 19.5289C3.30204 19.1821 4.47358 18.0545 6.16143 18.4449L6.173 18.4495ZM7.58996 21.2421C7.86548 21.5843 8.99997 21.6486 8.97913 21.8966C8.88189 22.1584 7.60153 21.52 7.65942 21.8576C7.69646 21.9586 7.77055 21.9058 8.22435 22.0619C9.11573 22.372 9.06711 22.6935 7.72424 22.2434C7.47651 22.1607 7.44178 22.2434 7.48114 22.3329C7.5205 22.4225 8.35169 22.5993 8.30538 22.7922C8.25676 22.9415 6.31192 22.3789 5.57334 21.729C5.84337 21.1864 6.22605 20.7066 6.69626 20.3212C6.8838 20.5026 6.96251 20.5853 7.00882 20.5692C7.05513 20.5531 7.72193 19.9744 7.7474 20.3396C7.75203 20.5876 7.2172 20.792 7.57838 21.2375L7.58996 21.2421ZM3.94106 23.4697C5.98083 24.5881 6.05261 23.2883 4.93432 26.8249C4.33933 25.7982 3.99518 24.6475 3.92949 23.4651L3.94106 23.4697ZM1.46139 39.5614C1.37804 39.7222 0.998333 39.8439 1.09557 39.3318C1.51927 37.1593 4.43654 29.4567 5.78635 24.2069C6.29571 24.3654 6.63837 24.4595 7.15005 24.5904C6.76803 25.6445 1.55632 39.4167 1.46139 39.5614ZM6.92084 38.0572C6.81665 38.7462 6.28182 38.7852 6.22625 38.0434C6.16143 37.0582 6.4902 34.4792 6.71246 28.6897C7.16764 28.9627 7.64284 29.2015 8.13405 29.4039C8.04375 30.1044 7.22646 36.0432 6.92084 38.0572ZM15.8069 38.8013C15.0105 39.1044 15.1725 39.3984 14.5914 30.6486C14.7002 30.6486 15.3624 30.6601 15.9505 30.6096C15.8833 34.8099 15.8972 38.2225 15.8069 38.8013ZM6.00167 28.0375C7.01808 25.2817 5.9299 26.9145 8.80085 28.2947C11.3477 29.5187 13.6444 29.6726 16.4807 29.6336C16.615 30.0102 16.7122 30.2927 16.733 30.3225C14.0149 30.8186 8.58553 30.0929 6.00167 28.0375ZM16.05 37.4188C16.1866 29.4751 15.7074 30.6877 16.7955 30.5017C17.2285 31.689 17.4415 32.2516 17.592 32.6535C16.0963 36.6701 16.1473 36.4703 16.2954 36.5576C16.5061 36.6954 16.4575 36.5025 16.05 37.4188ZM18.9163 36.1097C18.6262 36.4878 18.3172 36.8511 17.9902 37.1983C17.4522 36.9827 16.9313 36.727 16.432 36.4336C16.4112 36.4198 17.423 33.432 17.636 32.7591C18.7867 35.8342 18.9418 36.0776 18.9163 36.1097ZM21.7919 37.5106C21.6762 37.5451 20.4305 37.8413 19.9652 37.9171C14.2001 26.1337 19.4489 30.419 12.4474 29.2914C10.8267 29.0273 8.60637 28.3544 7.34222 27.1671C6.3698 26.2485 6.55039 26.593 7.24035 24.618C7.6108 24.6915 12.6859 26.0625 20.8728 26.0625C22.0559 29.0732 21.961 36.5231 21.7919 37.5106ZM22.0235 32.3481C21.91 30.6601 21.8081 28.1064 21.0534 26.0602C23.7044 26.074 23.3895 25.9683 23.4983 26.1038C24.9083 27.8561 23.3038 30.5522 22.0258 32.3481H22.0235ZM24.003 26.9122C23.6766 25.8076 23.114 26.074 24.1512 26.0188C24.1253 26.3198 24.0766 26.6185 24.0054 26.9122H24.003ZM25.8298 26.2967C25.251 25.8811 25.5589 25.9591 25.8066 25.9454C25.8252 26.3128 25.8576 26.3151 25.8321 26.2967H25.8298ZM29.8491 38.4683C29.3699 38.4683 29.4625 38.5785 29.4509 38.3098C29.4347 37.9768 26.8184 38.8449 25.978 38.8449C26.0567 38.1559 27.3671 37.5405 28.0062 37.2626C28.0062 37.2626 28.152 37.2626 28.6452 37.3154C30.2427 37.4831 29.8515 36.7803 29.8515 38.4683H29.8491ZM27.9969 35.5861C29.0851 35.678 29.8931 35.6344 29.8908 35.6573C29.8515 35.9444 29.8908 37.1386 29.8445 37.1478C29.2481 37.2597 28.6352 37.2543 28.0409 37.1317C28.0062 35.5012 28.0247 35.6826 27.9969 35.5861ZM3.73037 23.1344C3.35993 22.9048 3.05662 22.7004 3.23259 21.5498C6.2934 24.1219 24.3017 26.5402 40.6175 22.0344C42.4698 21.5223 42.743 20.5807 42.7407 20.6565C42.6805 22.7486 42.0646 23.0701 40.2077 23.5639C24.7277 27.6723 7.42326 25.5274 3.73037 23.1344ZM30.7521 38.4935C30.6919 38.11 30.6734 36.1006 30.6688 35.6504C31.155 35.6367 31.0091 36.0363 31.2661 32.7568C31.2823 32.7706 31.4976 28.9308 31.6389 27.8882C31.6574 27.7435 31.7176 27.7091 31.7129 27.8882C31.7129 28.003 31.7129 28.1546 31.7014 28.3475C31.5092 33.6823 31.2383 32.7109 31.7708 33.1702C31.368 38.7783 31.5532 38.7967 30.7521 38.4935ZM32.4747 28.2396C32.4191 28.2396 32.514 28.3108 31.7477 27.6172C32.2455 27.5506 36.6098 27.5254 38.8255 25.8145C39.0131 26.3358 38.9691 26.2141 39.3048 27.1304C37.3298 27.9548 34.5561 28.336 32.4747 28.2396ZM39.8674 38.2983C39.8327 38.257 38.6148 29.5922 38.3879 27.6195C39.6243 27.2291 39.2168 26.8938 39.8558 28.63C40.4601 37.8298 40.8606 38.7921 39.8674 38.2983ZM44.1437 39.465C44.0858 39.3639 38.6982 25.2265 38.3324 24.1472C38.7954 24.037 39.3858 23.89 39.7377 23.7981C41.0297 29.0801 44.2271 37.4096 44.5188 39.3364C44.5906 39.8049 44.3151 39.7796 44.1437 39.465Z" fill="#100259"/>
</svg>
