<svg width="44" height="40" viewBox="0 0 44 40" fill="none" xmlns="http://www.w3.org/2000/svg">
<path fill-rule="evenodd" clip-rule="evenodd" d="M12.1132 15.57C12.1532 15.587 12.1966 15.5967 12.2408 15.5984C12.285 15.6001 12.3291 15.5939 12.3706 15.58C12.3787 15.5782 12.3859 15.5739 12.3911 15.5679C12.3962 15.562 12.399 15.5546 12.399 15.547C12.399 15.5394 12.3962 15.532 12.3911 15.526C12.3859 15.5201 12.3787 15.5158 12.3706 15.514C12.1996 15.4471 12.0542 15.3358 11.9526 15.194C11.95 15.1867 11.9447 15.1804 11.9376 15.1762C11.9305 15.1719 11.9221 15.17 11.9137 15.1707C11.9052 15.1714 11.8973 15.1747 11.8912 15.18C11.8851 15.1853 11.8811 15.1924 11.88 15.2C11.8694 15.2763 11.8864 15.3537 11.9284 15.4205C11.9705 15.4872 12.0354 15.5397 12.1132 15.57ZM28.6682 10.688C26.6882 10.922 25.3858 11.088 25.3858 11.088C25.3506 11.088 25.3638 11.12 25.3638 11.152V20.04C25.3638 20.056 25.4188 20.07 25.4386 20.072C27.0688 20.24 29.4712 20.408 31.933 20.558C33.605 20.658 41.69 21.054 41.69 21.054C41.7129 21.054 41.7349 21.0461 41.7516 21.032C41.7605 21.0251 41.7677 21.0165 41.7726 21.0068C41.7776 20.9972 41.7801 20.9866 41.7802 20.976C41.7934 20.226 41.9518 9.53398 41.9518 9.53398C41.9517 9.52275 41.9491 9.51166 41.9442 9.50135C41.9393 9.49104 41.9321 9.48174 41.9232 9.47398C41.9142 9.46607 41.9035 9.45987 41.8918 9.45575C41.88 9.45163 41.8675 9.44967 41.855 9.44998C39.2568 9.59798 36.2934 9.86198 33.6028 10.138C31.7636 10.332 30.0498 10.524 28.6682 10.688ZM41.7692 9.62798L41.6064 20.898C41.1796 20.882 33.6138 20.542 31.9396 20.452C29.4954 20.32 27.0996 20.17 25.4738 20.016V11.216C25.8346 11.17 33.5126 10.306 35.2704 10.14C37.4506 9.93198 39.7188 9.74398 41.7692 9.62798Z" fill="#100259"/>
<path fill-rule="evenodd" clip-rule="evenodd" d="M28.9432 15.374C28.9385 16.385 29.3743 17.3564 30.1554 18.076C30.542 18.4336 31.003 18.7176 31.5116 18.9115C32.0202 19.1053 32.5662 19.2052 33.1177 19.2052C33.6692 19.2052 34.2152 19.1053 34.7238 18.9115C35.2324 18.7176 35.6934 18.4336 36.08 18.076C36.6688 17.5344 37.0662 16.8452 37.221 16.0968C37.3759 15.3485 37.2811 14.5751 36.949 13.876C37.248 13.877 37.5411 13.8002 37.7937 13.6548C38.0463 13.5094 38.2479 13.3014 38.3748 13.0552C38.5017 12.8091 38.5486 12.5352 38.5099 12.2656C38.4712 11.9961 38.3486 11.7422 38.1565 11.5339C37.9645 11.3256 37.7109 11.1716 37.4257 11.0899C37.1405 11.0083 36.8356 11.0024 36.5469 11.073C36.2582 11.1437 35.9976 11.2878 35.796 11.4886C35.5945 11.6893 35.4602 11.9382 35.409 12.206C34.7796 11.8328 34.0512 11.6208 33.3004 11.5921C32.5496 11.5635 31.8042 11.7195 31.1426 12.0435C30.4811 12.3675 29.9279 12.8477 29.5412 13.4335C29.1545 14.0192 28.9487 14.6889 28.9454 15.372L28.9432 15.374ZM36.5376 12.148L36.7994 12.688L37.3362 11.456L37.6354 11.626L37.015 13.15L36.575 13.188L36.2054 12.454L36.5376 12.148ZM33.1166 11.66C33.9311 11.6621 34.725 11.8934 35.3892 12.322V12.454C35.3892 12.8057 35.5324 13.145 35.7911 13.4064C36.0499 13.6678 36.4059 13.833 36.7906 13.87C37.1184 14.5494 37.2144 15.3026 37.0662 16.0322C36.9179 16.7617 36.5322 17.434 35.959 17.962C35.5884 18.3031 35.147 18.574 34.6604 18.7588C34.1738 18.9437 33.6517 19.0389 33.1243 19.0389C32.5969 19.0389 32.0748 18.9437 31.5882 18.7588C31.1016 18.574 30.6602 18.3031 30.2896 17.962C29.54 17.2713 29.1181 16.341 29.1144 15.3707C29.1107 14.4004 29.5255 13.4675 30.2698 12.772C30.6386 12.4232 31.0805 12.1451 31.5694 11.9542C32.0584 11.7632 32.5844 11.6632 33.1166 11.66Z" fill="#100259"/>
<path fill-rule="evenodd" clip-rule="evenodd" d="M30.7626 13.916L31.4996 13.934C31.5128 14.028 31.9396 16.6 31.9396 16.6C31.9427 16.6193 31.9533 16.6369 31.9694 16.6497C31.9856 16.6626 32.0062 16.6698 32.0276 16.67L34.584 16.62C34.5921 16.6182 34.5993 16.6139 34.6045 16.608C34.6096 16.602 34.6124 16.5946 34.6124 16.587C34.6124 16.5794 34.6096 16.572 34.6045 16.5661C34.5993 16.5601 34.5921 16.5558 34.584 16.554C34.584 16.554 33.3058 16.516 33.044 16.512H32.098C32.0848 16.43 32.0584 16.28 32.0254 16.09C32.2454 16.09 34.3662 16.042 34.3662 16.042C34.3874 16.0417 34.4077 16.0344 34.4235 16.0216C34.4392 16.0087 34.4494 15.9911 34.452 15.972L34.672 14.556C34.6734 14.5445 34.6721 14.5329 34.6683 14.5219C34.6645 14.5109 34.6583 14.5007 34.65 14.492C34.6415 14.4832 34.631 14.4761 34.6192 14.4713C34.6075 14.4665 34.5947 14.464 34.5818 14.464C34.5818 14.464 31.9418 14.518 31.7416 14.526C31.6074 13.848 31.6162 13.83 31.5458 13.83L30.7538 13.856C30.7439 13.856 30.7344 13.8596 30.7274 13.866C30.7203 13.8724 30.7164 13.881 30.7164 13.89C30.7164 13.899 30.7203 13.9077 30.7274 13.9141C30.7344 13.9204 30.7439 13.924 30.7538 13.924L30.7626 13.916ZM33.6072 15.834V15.91C33.5368 15.91 32.9274 15.95 32.7096 15.966C32.7101 15.7602 32.691 15.5548 32.6524 15.352L33.6314 15.332C33.608 15.4984 33.5999 15.6664 33.6072 15.834ZM33.858 14.734V14.62H34.4894L34.4014 15.2H34.2166C34.111 15.2 33.979 15.19 33.8338 15.188C33.8525 15.0373 33.8606 14.8857 33.858 14.734ZM33.8162 15.334C33.9702 15.324 34.1088 15.312 34.2188 15.302L34.3882 15.286L34.298 15.886L33.7062 15.914C33.7062 15.896 33.7062 15.876 33.7216 15.854C33.7683 15.6799 33.7999 15.5027 33.8162 15.324V15.334ZM33.759 14.63C33.7077 14.8113 33.6716 14.9958 33.6512 15.182L32.6282 15.208C32.5979 15.0049 32.5501 14.8043 32.4852 14.608C32.9582 14.614 33.286 14.618 33.759 14.62V14.63ZM32.6216 15.982L32.0254 16.022C31.988 15.822 31.9462 15.584 31.9022 15.342L32.142 15.354H32.472C32.5023 15.5635 32.5524 15.7703 32.6216 15.972V15.982ZM32.4016 14.612C32.4032 14.813 32.4216 15.0136 32.4566 15.212L32.1486 15.236L31.8956 15.258C31.878 15.156 31.7944 14.71 31.7724 14.594C31.8824 14.6 32.12 14.6 32.3928 14.6L32.4016 14.612Z" fill="#100259"/>
<path fill-rule="evenodd" clip-rule="evenodd" d="M42.8714 8.638C42.8622 8.63035 42.8515 8.62446 42.8398 8.62068C42.8281 8.6169 42.8156 8.61531 42.8032 8.616C39.9124 8.786 36.6146 9.088 33.6204 9.404C31.5722 9.62 24.475 10.49 24.475 10.49C24.4398 10.49 24.4574 10.522 24.4574 10.554V20.74C24.4574 20.756 24.5146 20.77 24.5344 20.772C26.323 20.96 28.952 21.15 31.6536 21.318C31.7108 21.518 31.9506 22.318 32.0672 22.934C32.1082 23.121 32.1281 23.3113 32.1266 23.502C32.1284 23.5363 32.1192 23.5703 32.1002 23.6C31.8802 23.8 30.6284 24.15 30.591 24.164C30.5724 24.169 30.5564 24.1797 30.5455 24.1943C30.5347 24.2089 30.5298 24.2265 30.5316 24.244L30.5668 24.632C30.5678 24.6499 30.5759 24.6669 30.5897 24.6798C30.6035 24.6927 30.6219 24.7006 30.6416 24.702C35.7874 25.326 35.4816 25.316 35.5278 25.302C35.9769 25.13 36.4121 24.9296 36.8302 24.702C36.9595 24.6296 37.0785 24.543 37.1844 24.444C37.2442 24.3908 37.2809 24.3198 37.2878 24.244C37.2389 23.9592 37.1653 23.6783 37.0678 23.404C36.8478 22.73 36.542 21.864 36.4452 21.604L42.6184 21.902C42.6302 21.9029 42.642 21.9014 42.653 21.8976C42.6641 21.8938 42.674 21.8878 42.6822 21.88C42.6908 21.873 42.6977 21.8643 42.7022 21.8547C42.7068 21.845 42.709 21.8345 42.7086 21.824C42.724 20.964 42.9 8.712 42.9 8.712C42.9019 8.6985 42.9002 8.68479 42.8953 8.67195C42.8903 8.65911 42.8821 8.64749 42.8714 8.638ZM33.0836 24.838L30.7318 24.55L30.7076 24.288H30.7274C30.91 24.312 32.2784 24.472 32.5512 24.5C33.143 24.56 35.2682 24.754 35.4112 24.766C35.3792 24.8869 35.3792 25.0131 35.4112 25.134L33.0836 24.838ZM36.938 23.426C37.0265 23.6874 37.0912 23.955 37.1316 24.226C37.1237 24.2645 37.1011 24.2992 37.0678 24.324C36.9688 24.4114 36.8587 24.488 36.74 24.552C36.3628 24.7562 35.9711 24.9372 35.5674 25.094C35.5855 24.9747 35.575 24.8533 35.5366 24.738C35.651 24.694 36.0448 24.538 36.3968 24.384C36.5973 24.3014 36.7894 24.203 36.971 24.09C36.9744 24.087 36.9771 24.0834 36.9789 24.0795C36.9808 24.0755 36.9817 24.0713 36.9817 24.067C36.9817 24.0627 36.9808 24.0585 36.9789 24.0545C36.9771 24.0506 36.9744 24.047 36.971 24.044C36.964 24.0377 36.9545 24.0341 36.9446 24.0341C36.9347 24.0341 36.9252 24.0377 36.9182 24.044C36.7817 24.1217 36.6382 24.1886 36.4892 24.244C36.0866 24.402 35.563 24.58 35.4552 24.616C35.3584 24.616 31.1278 24.236 30.9188 24.216C32.2388 23.798 32.2388 23.682 32.2586 23.502C32.2563 23.3001 32.2305 23.099 32.1816 22.902C32.054 22.302 31.801 21.542 31.724 21.302L36.443 21.6H36.366C36.443 21.822 36.74 22.73 36.938 23.43V23.426ZM42.537 21.724C42.0816 21.706 33.6314 21.324 31.768 21.21C29.0466 21.056 26.3802 20.884 24.5674 20.706V10.612C24.9524 10.562 33.517 9.568 35.4728 9.376C37.8928 9.138 40.4338 8.92 42.7174 8.788L42.537 21.724Z" fill="#100259"/>
<path fill-rule="evenodd" clip-rule="evenodd" d="M35.4794 23.644C35.3606 23.644 33.7612 23.572 33.6138 23.57C33.4664 23.568 32.6788 23.57 32.6788 23.57C32.6739 23.5697 32.669 23.5704 32.6643 23.5718C32.6597 23.5733 32.6554 23.5756 32.6517 23.5785C32.648 23.5815 32.645 23.5851 32.6429 23.5891C32.6407 23.5932 32.6395 23.5975 32.6392 23.602C32.6392 23.6107 32.6428 23.6191 32.6494 23.6254C32.6559 23.6317 32.6649 23.6355 32.6744 23.636C32.769 23.636 33.9834 23.774 35.4728 23.792H36.4078C36.4125 23.7926 36.4173 23.7922 36.4218 23.791C36.4263 23.7897 36.4305 23.7876 36.434 23.7848C36.4376 23.7819 36.4404 23.7784 36.4423 23.7745C36.4443 23.7706 36.4452 23.7663 36.4452 23.762C36.4455 23.7575 36.4448 23.7531 36.4432 23.7488C36.4416 23.7446 36.4391 23.7407 36.4358 23.7374C36.4326 23.734 36.4286 23.7313 36.4242 23.7294C36.4197 23.7274 36.4149 23.7263 36.41 23.726C36.41 23.726 35.695 23.66 35.4794 23.644ZM39.4306 16.1L39.6704 16.5L39.8618 16.374L39.6308 16.012L39.9894 15.854L39.0302 15.084L39.0852 16.252L39.4306 16.1ZM38.357 17.292C38.3548 17.2959 38.3535 17.3002 38.3532 17.3046C38.3529 17.309 38.3536 17.3134 38.3553 17.3175C38.3569 17.3216 38.3595 17.3254 38.3628 17.3286C38.3661 17.3318 38.3702 17.3343 38.3746 17.336C38.4511 17.3864 38.5304 17.4331 38.6122 17.476C38.7046 17.524 38.9158 17.61 39.0148 17.646C39.0742 17.668 39.4152 17.782 39.4416 17.73C39.4438 17.7261 39.4451 17.7218 39.4454 17.7174C39.4457 17.7131 39.445 17.7087 39.4433 17.7045C39.4417 17.7004 39.4391 17.6966 39.4358 17.6934C39.4325 17.6903 39.4284 17.6877 39.424 17.686L39.3294 17.626C39.0863 17.4849 38.8217 17.3771 38.544 17.306C38.4582 17.284 38.4054 17.276 38.4054 17.276C38.3966 17.2725 38.3867 17.2723 38.3777 17.2752C38.3687 17.2782 38.3613 17.2842 38.357 17.292ZM37.4946 19.032C37.3677 18.8449 37.1886 18.6917 36.9754 18.588C36.9721 18.585 36.9681 18.5826 36.9638 18.581C36.9595 18.5793 36.9548 18.5785 36.9501 18.5785C36.9454 18.5785 36.9408 18.5793 36.9364 18.581C36.9321 18.5826 36.9281 18.585 36.9248 18.588C36.9215 18.591 36.9188 18.5946 36.917 18.5986C36.9152 18.6025 36.9143 18.6067 36.9143 18.611C36.9143 18.6153 36.9152 18.6195 36.917 18.6235C36.9188 18.6274 36.9215 18.631 36.9248 18.634C36.9395 18.6624 36.9564 18.6898 36.9754 18.716C37.102 18.8957 37.2769 19.043 37.4836 19.144C37.4867 19.1474 37.4906 19.1501 37.4949 19.1519C37.4993 19.1538 37.5041 19.1548 37.5089 19.1548C37.5137 19.1548 37.5185 19.1538 37.5229 19.1519C37.5272 19.1501 37.5311 19.1474 37.5342 19.144C37.5405 19.1377 37.5441 19.1295 37.5441 19.121C37.5441 19.1125 37.5405 19.1043 37.5342 19.098L37.4946 19.032ZM28.2194 16.502C28.214 16.4948 28.2059 16.4895 28.1966 16.4873C28.1873 16.4851 28.1774 16.4861 28.1688 16.49C27.7106 16.6453 27.2833 16.8675 26.9038 17.148C26.8958 17.1529 26.8901 17.1603 26.8877 17.1688C26.8852 17.1772 26.8863 17.1862 26.8906 17.194C26.8956 17.2016 26.9038 17.2071 26.9132 17.2094C26.9227 17.2116 26.9327 17.2104 26.9412 17.206C27.3984 17.0487 27.8253 16.8266 28.2062 16.548C28.2142 16.5431 28.2199 16.5357 28.2223 16.5273C28.2248 16.5188 28.2237 16.5098 28.2194 16.502ZM29.26 18.148C29.0488 18.2615 28.8518 18.3956 28.6726 18.548C27.9928 19.086 28.1688 19.098 28.2062 19.066C28.2062 19.066 28.2678 19.034 28.3624 18.976C28.7134 18.755 29.0321 18.4942 29.3106 18.2C29.3179 18.1944 29.3225 18.1865 29.3233 18.1778C29.3241 18.1692 29.3211 18.1606 29.315 18.154C29.3089 18.1474 29.3001 18.1432 29.2906 18.1425C29.2811 18.1417 29.2717 18.1444 29.2644 18.15L29.26 18.148ZM32.6942 27.248C32.5181 27.1388 32.3244 27.0551 32.12 27C32.1124 26.9663 32.0974 26.9344 32.076 26.906C32.0369 26.8581 31.9875 26.818 31.9308 26.788C31.7372 26.6883 31.523 26.6263 31.3016 26.606C31.0259 26.5748 30.746 26.6071 30.4876 26.7C30.074 26.856 29.0598 27.422 27.929 27.79C27.349 27.9945 26.7338 28.1042 26.1118 28.114C25.2637 28.118 24.4182 28.2004 23.5884 28.36C22.5082 28.56 21.5424 28.824 21.197 29.018L20.5084 28.106H20.5282C20.6815 28.0522 20.8288 27.9852 20.9682 27.906C21.0698 27.8566 21.1589 27.7885 21.23 27.706C21.2349 27.6988 21.2374 27.6905 21.2374 27.682C21.2374 27.6735 21.2349 27.6652 21.23 27.658C21.2225 27.6455 21.2099 27.6361 21.1948 27.632C21.1714 27.6186 21.1463 27.6078 21.12 27.6C20.8486 27.5904 20.5769 27.5944 20.306 27.612C19.7198 26.2638 18.9701 24.9792 18.0708 23.782C17.5393 23.0723 16.951 22.3992 16.3108 21.768C16.566 21.332 16.8542 20.814 17.3426 19.82C17.5217 19.7405 17.6761 19.6214 17.7914 19.4736C17.9067 19.3258 17.9793 19.154 18.0026 18.974C18.2666 19.066 18.4426 18.722 18.4976 18.446C18.8364 18.566 19.448 18.778 19.7934 18.878C19.8497 18.8967 19.9079 18.9101 19.9672 18.918C20.2026 18.918 21.0672 17.768 21.2212 17.518C21.2662 17.4517 21.2947 17.3773 21.3048 17.3C21.3024 17.2741 21.2934 17.249 21.2785 17.2268C21.2636 17.2046 21.2432 17.1859 21.219 17.172C20.8802 16.936 19.3842 16.624 18.8144 16.546C18.3216 16.48 18.337 16.496 18.0356 16.844C17.9212 16.976 17.7958 17.132 17.688 17.268C17.4882 17.2743 17.2897 17.3005 17.0962 17.346C16.423 17.506 16.2162 17.726 16.1018 18.1C16.0066 18.3919 15.9628 18.6957 15.972 19C15.4264 19.49 15.0216 19.878 14.5882 20.304C13.4578 19.4469 12.2193 18.7151 10.8988 18.124L11.0308 17.324C11.7876 17.324 12.8326 17.124 13.101 16.478C13.2257 16.1593 13.3199 15.8314 13.3826 15.498C13.4684 15.06 13.5036 14.678 13.5146 14.546L13.9414 14.364C13.9599 14.3562 13.9747 14.3426 13.9831 14.3257C13.9916 14.3089 13.9932 14.2898 13.9876 14.272C13.9876 14.272 13.4574 12.472 13.4244 12.348C13.6994 12.292 13.904 12.24 13.904 12.24C13.904 9.04001 10.604 8.37001 10.604 8.37001C10.604 8.37001 11.6468 7.17001 11.77 6.39401C11.8932 5.61801 10.846 5.35801 9.471 5.69201C8.096 6.02601 8.9936 8.23001 8.9936 8.23001C8.3666 8.10401 7.183 8.74801 7.183 8.74801C6.303 4.57801 3.894 6.32801 3.663 7.56201C3.432 8.79601 6.49 9.07801 6.49 9.07801C4.4418 9.85801 3.7224 16.15 3.7224 16.15C4.1932 16.48 5.1304 16.682 6.1424 16.804C4.23319 18.0279 2.76991 19.7426 1.9404 21.728C1.57681 22.5842 1.32932 23.4774 1.2034 24.388C0.969557 26.2097 1.11888 28.0551 1.6434 29.826C1.97628 31.0037 2.41785 32.1538 2.9634 33.264C2.96523 33.268 2.96791 33.2717 2.9713 33.2747C2.97469 33.2778 2.97871 33.2802 2.98314 33.2818C2.98756 33.2834 2.9923 33.2843 2.99707 33.2842C3.00185 33.2842 3.00656 33.2832 3.01094 33.2815C3.01532 33.2798 3.01928 33.2773 3.02258 33.2742C3.02589 33.271 3.02848 33.2673 3.0302 33.2633C3.03191 33.2592 3.03273 33.2549 3.03259 33.2506C3.03246 33.2462 3.03137 33.242 3.0294 33.238C2.50329 32.1256 2.07872 30.9757 1.76 29.8C1.25859 28.0382 1.12575 26.2064 1.3684 24.4C1.49752 23.5023 1.74496 22.622 2.1054 21.778C2.93485 19.8049 4.40211 18.1064 6.314 16.906C9.8846 17.362 14.7554 19.706 17.9586 23.852C18.8671 25.0385 19.6278 26.3129 20.2268 27.652C19.4229 28.3253 18.5371 28.9131 17.5868 29.404C17.1102 29.6516 16.6163 29.8707 16.1084 30.06C15.6027 30.2504 15.0801 30.4016 14.5464 30.512C14.1504 30 12.2386 27 12.2232 26.984C12.2211 26.9801 12.2182 26.9767 12.2146 26.9739C12.211 26.9711 12.2068 26.9689 12.2023 26.9676C12.1978 26.9663 12.193 26.9659 12.1883 26.9663C12.1836 26.9667 12.179 26.968 12.1748 26.97C12.1702 26.9719 12.1662 26.9746 12.1629 26.9781C12.1596 26.9815 12.1571 26.9855 12.1557 26.9898C12.1542 26.9942 12.1538 26.9988 12.1544 27.0033C12.1551 27.0078 12.1568 27.0121 12.1594 27.016C12.1594 27.016 12.2474 27.192 12.397 27.47C12.903 28.408 13.7346 29.756 14.4804 30.552C14.2604 30.874 13.8776 31.592 14.2956 31.562C14.5574 31.544 14.8852 31.24 14.9556 31.202C15.9547 32.1668 17.0999 32.9971 18.3568 33.668C19.25 34.12 20.229 34.45 21.186 34.468H21.1992C22.4818 34.268 23.8392 33.612 25.0976 32.798C27.2338 31.416 29.0994 29.598 29.9046 28.86C30.0377 28.7388 30.1795 28.6259 30.3292 28.522C30.5697 28.5603 30.8132 28.581 31.0574 28.584C31.2407 28.5869 31.4239 28.5762 31.6052 28.552C31.9174 28.5191 32.2178 28.4242 32.4852 28.274C32.6282 28.1946 32.7541 28.0923 32.857 27.972C32.9354 27.883 32.9774 27.772 32.9758 27.658C32.9725 27.5874 32.9498 27.5186 32.9098 27.458C32.855 27.375 32.7816 27.3034 32.6942 27.248ZM7.26 16.908C8.8352 17.018 10.2938 16.986 10.2938 16.986C10.2146 16.51 9.5062 14.234 9.5062 14.234C8.954 14.274 8.47 13.914 8.811 13.216C9.152 12.518 9.9484 13.016 9.9484 13.016C10.6104 12.8116 11.2071 12.4627 11.6864 12C11.7525 12.1677 11.8575 12.3205 11.9944 12.448C12.1352 12.578 12.8304 12.466 13.3408 12.364C13.376 12.54 13.4354 12.802 13.5014 13.074C13.5498 13.284 13.772 14.146 13.7984 14.246L13.3848 14.4C13.2836 14.442 13.3848 14.512 13.1956 15.45C13.1357 15.7736 13.046 16.0921 12.9272 16.402C12.8699 16.5234 12.7868 16.6332 12.6826 16.7252C12.5784 16.8172 12.4551 16.8895 12.32 16.938C11.891 17.097 11.4344 17.1857 10.9714 17.2C10.956 17.1995 10.941 17.2044 10.9295 17.2137C10.918 17.223 10.9109 17.236 10.9098 17.25L10.6788 18.028C9.5903 17.5366 8.44314 17.1607 7.26 16.908ZM18.04 18.84C17.93 18.84 18.0906 18.356 18.0972 18.326L18.381 18.426C18.3392 18.564 18.2116 18.838 18.04 18.84ZM18.3766 16.652C18.9112 16.674 20.8406 17.114 21.0804 17.32C21.0342 17.53 20.3258 18.378 20.0552 18.644C19.8792 18.814 20.2752 18.902 17.5978 18.072C17.7342 17.884 17.9432 17.548 17.71 17.472C17.6769 17.4637 17.6419 17.4637 17.6088 17.472C17.8438 17.1807 18.1034 16.9065 18.3854 16.652H18.3766ZM17.9212 18.252C17.8838 18.366 17.8266 18.702 17.7144 18.652C17.6022 18.602 17.6484 18.308 17.699 18.174L17.9212 18.252ZM14.8698 20.526L14.6498 20.356C14.7774 20.252 15.5298 19.626 15.598 19.556C15.8884 19.302 16.1282 19.088 16.1282 19.088C16.1377 19.0795 16.145 19.0691 16.1496 19.0577C16.1541 19.0463 16.1559 19.0341 16.1546 19.022C16.1346 18.7276 16.1642 18.4322 16.2426 18.146C16.2843 17.9638 16.3977 17.8016 16.5616 17.69C16.8783 17.5129 17.2318 17.3971 17.6 17.35L17.479 17.506C17.039 17.722 16.4934 18.436 16.4758 18.456C16.4697 18.4626 16.4667 18.4712 16.4675 18.4798C16.4683 18.4885 16.4729 18.4964 16.4802 18.502C16.4875 18.5076 16.4969 18.5103 16.5064 18.5095C16.5159 18.5088 16.5247 18.5046 16.5308 18.498C16.6144 18.426 17.5296 17.576 17.6506 17.62C17.7716 17.664 16.9906 18.584 17.0632 18.638C17.1358 18.692 17.523 18.188 17.5648 18.13L17.6374 18.156C17.5142 18.374 17.4174 18.672 17.655 18.794C17.684 18.8085 17.7165 18.8162 17.7496 18.8162C17.7827 18.8162 17.8152 18.8085 17.8442 18.794C17.8508 18.8376 17.8681 18.8793 17.8948 18.916C17.8515 19.1469 17.7189 19.3562 17.5208 19.506C17.0808 19.86 17.3536 19.274 16.566 20.954C16.4956 21.102 16.4318 21.246 16.3768 21.37C16.3218 21.494 16.2624 21.632 16.2316 21.706C15.7997 21.2922 15.3452 20.8984 14.8698 20.526ZM14.366 31.376C14.3396 31.3873 14.3114 31.3947 14.2824 31.398C14.3505 31.1363 14.4633 30.8859 14.6168 30.656C15.1473 30.5427 15.6668 30.3902 16.17 30.2C16.6823 30.0031 17.1792 29.7746 17.6572 29.516C18.6096 29.0037 19.4921 28.3907 20.2862 27.69C20.5558 27.6751 20.8262 27.6751 21.0958 27.69C21.0336 27.7376 20.9665 27.7798 20.8956 27.816C20.762 27.8872 20.6213 27.9468 20.4754 27.994C20.4342 28.002 20.3956 28.0184 20.3624 28.0419C20.3293 28.0655 20.3025 28.0956 20.284 28.13C20.2334 28.248 20.3368 28.352 20.207 28.53C20.031 28.764 19.7868 28.636 19.4788 28.702C19.1114 28.78 19.2588 29.302 19.0388 29.474C18.8188 29.646 18.3656 29.342 18.1588 29.622C18.0444 29.78 18.1016 30.038 18.0004 30.182C17.8992 30.326 17.3734 29.926 17.0632 30.214C16.9611 30.3551 16.8693 30.5021 16.7882 30.654C16.6364 30.866 16.4142 30.606 16.1282 30.592C15.6002 30.568 16.0204 31.704 15.312 31.192C15.2442 31.1397 15.1704 31.0941 15.092 31.056C14.8368 30.926 14.7598 31.226 14.366 31.376ZM29.766 28.734C28.9652 29.462 27.1084 31.28 24.9876 32.664C23.7534 33.464 22.429 34.126 21.1684 34.328C20.2356 34.328 19.2786 34.004 18.4052 33.572C17.1794 32.9309 16.0571 32.1387 15.07 31.218C15.126 31.2502 15.1796 31.2856 15.2306 31.324C16.0732 31.924 15.9742 30.746 16.1502 30.754C16.4714 30.768 16.7376 31.224 17.1248 30.468C17.1475 30.4157 17.1795 30.367 17.2194 30.324C17.4548 30.104 17.9542 30.584 18.1764 30.264C18.326 30.046 18.2226 29.688 18.3964 29.664C18.5702 29.64 18.7286 29.72 18.9134 29.694C19.4986 29.616 19.228 28.894 19.5184 28.832C19.6276 28.8111 19.7391 28.8024 19.8506 28.806C19.9368 28.8081 20.0227 28.7952 20.1036 28.768C20.1943 28.7331 20.2711 28.6738 20.3236 28.598C20.471 28.398 20.3764 28.25 20.405 28.176C20.4093 28.1661 20.417 28.1577 20.427 28.152L21.1464 29.142C21.1492 29.1463 21.1531 29.1499 21.1576 29.1527C21.1622 29.1555 21.1674 29.1573 21.1728 29.158C21.1834 29.1619 21.1952 29.1619 21.2058 29.158C21.5116 28.97 22.4994 28.68 23.606 28.492C24.4279 28.3338 25.2651 28.2507 26.1052 28.244C26.7451 28.2403 27.3792 28.1326 27.9774 27.926C29.1126 27.564 30.1334 27.004 30.5492 26.85C30.7806 26.7677 31.0309 26.7395 31.2774 26.768C31.449 26.7858 31.6162 26.829 31.7724 26.896C31.8302 26.9182 31.8814 26.9525 31.922 26.996C31.9298 27.0072 31.9357 27.0193 31.9396 27.032H31.8956C31.8255 27.0024 31.7516 26.9809 31.6756 26.968C31.376 26.9178 31.0688 26.9178 30.7692 26.968C30.7461 26.9714 30.7253 26.983 30.7115 27.0002C30.6977 27.0174 30.6919 27.0388 30.6954 27.0599C30.6989 27.0809 30.7113 27.0999 30.7301 27.1127C30.7489 27.1254 30.7724 27.1309 30.7956 27.128C31.0076 27.101 31.222 27.0923 31.4358 27.102H31.5502C31.5949 27.1086 31.639 27.1179 31.6822 27.13C31.7966 27.153 31.8981 27.2126 31.9682 27.298C31.6116 27.248 31.2474 27.2664 30.899 27.352H30.8726C30.8518 27.3593 30.8346 27.3732 30.8242 27.3911C30.8138 27.4091 30.8108 27.4298 30.8159 27.4496C30.821 27.4693 30.8338 27.4867 30.8519 27.4985C30.87 27.5104 30.8922 27.5159 30.9144 27.514H30.9452C31.1702 27.4696 31.3992 27.4441 31.6294 27.438H31.79C31.8587 27.4434 31.9265 27.4555 31.9924 27.474C32.0156 27.4816 32.0378 27.4916 32.0584 27.504C32.0692 27.5101 32.0811 27.5141 32.0936 27.516C32.1161 27.5268 32.1358 27.5419 32.1513 27.5601C32.1669 27.5784 32.178 27.5995 32.1838 27.622L32.1552 27.634C32.1159 27.6478 32.0755 27.6585 32.0342 27.666C31.656 27.7271 31.2869 27.8278 30.9342 27.966C30.4987 28.1555 30.1051 28.4158 29.7726 28.734H29.766ZM32.7096 27.854C32.6167 27.9639 32.5017 28.0569 32.3708 28.128C32.1258 28.2643 31.8524 28.3528 31.5678 28.388C31.3939 28.4156 31.2183 28.4329 31.042 28.44C30.8361 28.45 30.6297 28.45 30.4238 28.44C30.5426 28.364 30.657 28.3 30.7692 28.24C31.2202 28.0356 31.701 27.8908 32.197 27.81C32.3312 27.77 32.3796 27.704 32.3708 27.626C32.3637 27.5767 32.3441 27.5295 32.3136 27.4882C32.283 27.4469 32.2424 27.4126 32.1948 27.388C32.1772 27.2921 32.1263 27.2038 32.0496 27.136L32.076 27.112C32.0881 27.0974 32.0977 27.0812 32.1046 27.064C32.219 27.1111 32.3293 27.1659 32.4346 27.228C32.5634 27.2994 32.672 27.3974 32.7514 27.514C32.7843 27.5672 32.7985 27.6283 32.7922 27.689C32.7859 27.7498 32.7594 27.8073 32.7162 27.854H32.7096Z" fill="#100259"/>
<path fill-rule="evenodd" clip-rule="evenodd" d="M17.9278 17.748C18.5675 17.9996 19.23 18.2004 19.9078 18.348C20.5326 18.482 20.0816 18.24 18.8078 17.878C18.348 17.748 18.0004 17.678 17.9674 17.678C17.9626 17.6757 17.9572 17.6745 17.9518 17.6743C17.9464 17.6741 17.9409 17.675 17.9359 17.677C17.9309 17.6789 17.9264 17.6818 17.9228 17.6854C17.9191 17.6891 17.9164 17.6934 17.9148 17.6982C17.9131 17.7029 17.9127 17.7079 17.9134 17.7128C17.9141 17.7177 17.916 17.7224 17.9189 17.7265C17.9218 17.7307 17.9257 17.7342 17.9303 17.7369C17.9349 17.7396 17.94 17.7413 17.9454 17.742L17.9278 17.748ZM18.9002 16.966L18.4404 16.866L18.2446 17.056L18.7528 17.178L18.9002 16.966ZM32.34 17C32.2256 17 32.1332 17.116 32.1332 17.26C32.1332 17.404 32.2256 17.518 32.34 17.518C32.4544 17.518 32.5446 17.402 32.5446 17.26C32.5446 17.118 32.461 17 32.34 17ZM34.3376 17C34.2232 17 34.1308 17.116 34.1308 17.26C34.1308 17.404 34.2232 17.518 34.3376 17.518C34.452 17.518 34.5422 17.402 34.5422 17.26C34.5422 17.118 34.4498 17 34.3376 17ZM12.6236 13.758C12.6431 13.7583 12.6625 13.7549 12.6806 13.7481C12.6986 13.7414 12.715 13.7313 12.7286 13.7185C12.7422 13.7058 12.7528 13.6907 12.7597 13.6741C12.7666 13.6574 12.7697 13.6397 12.7688 13.622C12.7688 13.53 12.7688 13.44 12.7798 13.348C12.7837 13.3114 12.7723 13.2748 12.7479 13.2455C12.7234 13.2162 12.6877 13.1964 12.6478 13.19C12.4542 13.166 12.4784 13.412 12.4784 13.61C12.4777 13.6467 12.4922 13.6824 12.5191 13.7098C12.546 13.7373 12.5833 13.7545 12.6236 13.758Z" fill="#100259"/>
</svg>
