<svg width="44" height="40" viewBox="0 0 44 40" fill="none" xmlns="http://www.w3.org/2000/svg">
<g clip-path="url(#clip0_20_153)">
<path d="M34.5843 7.78938C28.8571 7.87138 5.26033 7.91598 -0.641829 7.84778C-0.992289 7.84378 -1.01891 7.30078 -0.656129 7.30078C5.42797 7.30758 26.4602 7.20218 34.5729 7.36078C34.9634 7.36798 34.8574 7.78538 34.5843 7.78938Z" fill="#043F6D"/>
<path d="M27.5565 23.3838C27.1613 23.5389 26.7415 23.6356 26.3128 23.6704C26.3539 24.1284 26.3485 24.5889 26.2965 25.046C26.2909 25.0707 26.2758 25.0927 26.254 25.1083C26.2321 25.1238 26.205 25.1318 26.1773 25.1309C26.1496 25.13 26.1231 25.1202 26.1026 25.1033C26.082 25.0863 26.0688 25.0634 26.0651 25.0384C26.0239 24.7258 26.1201 24.3872 26.0508 23.6858C25.5362 23.6984 25.2951 23.5534 24.843 23.4976C23.7187 23.358 22.6382 23.0094 21.6686 22.4736C21.6398 22.4535 21.6208 22.4239 21.6158 22.3913C21.6109 22.3586 21.6203 22.3254 21.642 22.299C22.6368 21.1946 23.4017 19.9346 23.8994 18.5808C23.9581 18.4278 24.1528 18.2222 24.1537 18.4856C24.1561 19.1608 24.0695 19.8356 24.0695 20.5118C24.0695 21.739 24.1053 23.0518 25.4205 23.3602C26.227 23.5488 26.9776 23.3096 27.4768 23.1884C27.5954 23.1586 27.6834 23.328 27.5565 23.3838Z" fill="#043F6D"/>
<path d="M25.6526 20.758C25.5373 20.961 25.9302 20.937 26.1658 20.9472C26.1956 20.9494 26.2235 20.9612 26.2446 20.9804C26.2657 20.9996 26.2787 21.0249 26.2812 21.052C26.2837 21.079 26.2756 21.106 26.2583 21.1281C26.241 21.1502 26.2156 21.166 26.1867 21.1728C26.0309 21.1918 25.8726 21.1837 25.7201 21.1488C25.4477 21.0974 25.2398 21.0062 25.3881 20.7288C25.484 20.5416 25.5929 20.36 25.7142 20.1854C25.729 20.1642 25.7519 20.1487 25.7784 20.1418C25.8049 20.1348 25.8334 20.1368 25.8584 20.1475C25.8834 20.1582 25.9032 20.1768 25.9143 20.1998C25.9253 20.2228 25.9267 20.2487 25.9183 20.2726C25.8434 20.4403 25.7545 20.6025 25.6526 20.758Z" fill="#043F6D"/>
<path d="M27.1453 19.9762C27.1479 20.1046 27.1585 20.2992 26.9503 20.3042C26.7827 20.3084 26.7356 20.1736 26.7365 19.9934C26.7374 19.6688 27.1367 19.5784 27.1453 19.9762Z" fill="#043F6D"/>
<path d="M25.1827 19.968C25.1791 20.0908 25.1217 20.2066 24.9657 20.2008C24.8355 20.196 24.7886 20.036 24.7924 19.9306C24.7979 19.775 24.8518 19.6956 24.96 19.674C25.1261 19.6408 25.1873 19.814 25.1827 19.968Z" fill="#043F6D"/>
<path d="M25.0319 19.052C24.9448 19.0428 24.8565 19.056 24.7772 19.09C24.6978 19.124 24.6304 19.1774 24.5827 19.2444C24.4621 19.4064 24.3332 19.2734 24.379 19.1774C24.4377 19.0607 24.5361 18.9641 24.6597 18.902C24.7832 18.8399 24.9254 18.8154 25.0654 18.8322C25.0967 18.837 25.1246 18.8527 25.1434 18.876C25.1621 18.8993 25.1702 18.9282 25.1659 18.9568C25.1615 18.9854 25.1451 19.0113 25.1201 19.029C25.0951 19.0468 25.0635 19.055 25.0319 19.052Z" fill="#043F6D"/>
<path d="M26.8241 19.0244C26.7966 19.0242 26.7701 19.0152 26.7493 18.9989C26.7284 18.9826 26.7147 18.9601 26.7105 18.9354C26.7062 18.9107 26.7118 18.8855 26.7262 18.8642C26.7405 18.8429 26.7628 18.8269 26.7889 18.8192C26.9568 18.7865 27.1321 18.8101 27.2823 18.8856C27.4326 18.9612 27.5477 19.0837 27.6064 19.2304C27.6427 19.345 27.4744 19.439 27.4106 19.3104C27.36 19.2115 27.2755 19.1301 27.1697 19.0786C27.064 19.027 26.9427 19.008 26.8241 19.0244Z" fill="#043F6D"/>
<path d="M25.776 21.8338C25.8706 22.0274 26.0384 22.1838 26.2491 22.2745C26.4598 22.3652 26.6992 22.3842 26.924 22.328C27.1557 22.26 27.3505 22.1145 27.4689 21.9211C27.5873 21.7276 27.6206 21.5005 27.562 21.2856C27.5351 21.1856 27.4366 21.1508 27.3182 21.2356C26.823 21.5904 26.4565 21.6458 25.8713 21.6546C25.7762 21.656 25.7206 21.7334 25.776 21.8338Z" fill="#043F6D"/>
<path d="M9.77275 25.6856C9.82511 25.7758 9.67859 25.8726 9.59675 25.8056C9.12309 25.4158 8.25585 24.8656 8.01121 24.3456C7.68121 23.6456 7.86139 22.769 7.20843 22.2026C7.18489 22.1843 7.17001 22.1584 7.16686 22.1304C7.16372 22.1024 7.17255 22.0744 7.19154 22.0521C7.21052 22.0299 7.2382 22.0151 7.26883 22.0109C7.29946 22.0067 7.33069 22.0134 7.35605 22.0296C8.07765 22.491 7.94081 23.3944 8.27499 24.0496C8.61379 24.713 9.40139 25.0474 9.77275 25.6856Z" fill="#043F6D"/>
<path d="M4.94661 24.664C4.27348 24.5426 3.64388 24.2716 3.11401 23.8752C2.94395 23.739 3.14767 23.6292 3.27175 23.7054C3.79872 24.0438 4.40182 24.2717 5.03747 24.3724C5.65789 24.4558 6.28951 24.4411 6.90439 24.3288C7.05597 24.3104 7.05267 24.512 6.94839 24.5688C6.47407 24.8278 5.47901 24.7706 4.94661 24.664Z" fill="#043F6D"/>
<path d="M2.14931 24.3522C2.05515 24.2584 2.21355 24.1338 2.31695 24.2018C3.023 24.6943 3.83366 25.0484 4.69779 25.2418C5.37275 25.3818 5.18553 25.669 4.57965 25.5554C3.65132 25.3946 2.80155 24.9739 2.14931 24.3522Z" fill="#043F6D"/>
<path d="M4.77171 26.5438C3.96981 26.5016 2.85925 26.1656 2.25733 25.686C2.23616 25.6685 2.22259 25.6446 2.21905 25.6188C2.21552 25.5929 2.22225 25.5668 2.23805 25.5451C2.25385 25.5233 2.27766 25.5075 2.3052 25.5003C2.33273 25.4931 2.36218 25.4952 2.38823 25.506C3.30321 25.9136 3.79117 26.1206 4.81373 26.236C5.40729 26.3032 5.38991 26.5764 4.77171 26.5438Z" fill="#043F6D"/>
<path d="M8.31591 27.4769C8.47717 27.5769 8.29391 27.8231 8.12957 27.7347C7.26233 27.2705 6.27475 27.5547 5.33271 27.5533C4.41417 27.5675 3.51433 27.3166 2.76245 26.8367C2.65399 26.7629 2.77345 26.6153 2.88807 26.6631C3.74895 27.0584 4.70515 27.2509 5.66909 27.2231C6.55943 27.1741 7.52435 26.9869 8.31591 27.4769Z" fill="#043F6D"/>
<path d="M41.6917 39.3026C32.8862 39.4 7.81475 39.1994 2.45951 39.1426C2.11455 39.139 1.84087 38.785 2.44961 38.7826C9.33561 38.7504 31.437 38.758 41.6789 38.8438C42.0822 38.8462 42.0833 39.2982 41.6917 39.3026Z" fill="#043F6D"/>
<path d="M24.7242 24.8322C22.7882 25.1122 19.0799 26.994 17.0605 29.4218C18.9745 29.1584 24.6197 29.1134 26.242 29.2864C25.6316 28.6106 24.9557 27.9861 24.2224 27.4204C24.504 27.127 24.7688 26.8988 25.0005 26.698C24.5369 26.438 23.7749 26.0232 23.4385 25.8804C23.8195 25.4856 24.2512 25.1337 24.7242 24.8322Z" fill="#043F6D"/>
<path d="M28.9572 26.7882C29.2054 27.0131 29.4171 27.269 29.5859 27.5482C28.9072 27.9018 27.591 28.564 26.7966 29.3314C27.5551 29.4218 28.0506 29.7564 28.3146 30.7714C28.4281 31.2068 28.5847 31.9054 28.7401 32.6896C30.1773 32.404 31.6384 32.2284 33.1079 32.1646C32.8501 31.5644 32.5054 30.998 32.083 30.4806C31.9923 30.3716 32.1604 30.2332 32.2605 30.339C32.7707 30.8714 33.1655 31.4868 33.4241 32.1526C34.0823 32.1172 34.7426 32.1257 35.3995 32.178C35.5491 32.1934 35.5508 32.3968 35.3959 32.3934C33.1775 32.3277 30.9588 32.5177 28.7928 32.959C29.0139 34.1054 29.2221 35.3864 29.2874 36.2834C32.6974 36.2532 38.2295 37.785 39.0869 35.9372C41.007 31.799 35.1753 25.2676 31.0258 24.6958C31.3761 25.1365 31.6213 25.6388 31.7459 26.1706C31.2914 26.314 29.5534 26.6902 28.9572 26.7882Z" fill="#043F6D"/>
<path d="M26.4045 27.9622C25.7071 26.38 25.726 25.5378 25.5272 24.7622C25.5226 24.7354 25.5069 24.7113 25.4833 24.6947C25.4597 24.6782 25.43 24.6706 25.4004 24.6734C25.3708 24.6762 25.3434 24.6892 25.3241 24.7098C25.3047 24.7304 25.2948 24.7569 25.2964 24.784C25.2893 25.7202 25.814 27.2796 26.2402 28.1762C26.2537 28.1979 26.2726 28.2164 26.2955 28.2302C26.3183 28.244 26.3444 28.2527 26.3716 28.2557C26.3989 28.2586 26.4265 28.2556 26.4522 28.247C26.478 28.2384 26.5011 28.2244 26.5198 28.2062C27.8999 26.464 28.5894 25.8346 30.1718 24.7172C30.1964 24.7013 30.2133 24.6774 30.219 24.6505C30.2246 24.6236 30.2186 24.5957 30.2021 24.5727C30.1856 24.5498 30.16 24.5335 30.1306 24.5274C30.1012 24.5212 30.0703 24.5257 30.0444 24.5398C28.5758 25.4308 27.3346 26.5979 26.4045 27.9622Z" fill="#043F6D"/>
<path d="M15.1843 29.6024C13.8269 28.85 11.5259 26.999 10.5826 25.828C9.63454 26.7071 8.79116 27.6747 8.06643 28.7146C9.78375 31.017 12.5034 33.5008 14.2077 34.2224C14.0097 33.4548 13.9593 31.333 14.0097 30.6558C14.0601 29.9786 14.6215 29.7078 15.1843 29.6024Z" fill="#043F6D"/>
<path d="M7.40621 29.5674C7.82729 29.5514 7.61081 29.283 7.43129 29.2798C5.03329 29.237 2.46325 29.1838 0.65529 29.2094C0.79499 19.712 0.71139 13.7194 0.76859 8.368C0.77013 8.2262 0.53627 8.248 0.52923 8.383C0.30087 12.7336 0.44123 24.4496 0.26523 29.177C0.25907 29.339 0.27139 29.4424 0.65683 29.458C1.73637 29.502 2.78841 29.5038 3.87411 29.5208C4.87181 29.5366 6.43931 29.6042 7.40621 29.5674Z" fill="#043F6D"/>
<path d="M33.6782 20.1407C33.784 18.1907 33.751 16.2149 33.7607 14.2607C33.7664 13.1055 33.824 10.0039 33.8097 8.48175C33.8073 8.21815 33.5083 8.36835 33.5052 8.50175C33.4474 11.0863 33.2976 17.5399 33.4062 20.1435C33.4155 20.3627 33.6674 20.3595 33.6782 20.1407Z" fill="#043F6D"/>
<path d="M4.13151 14.1808C4.13151 13.5468 4.13745 12.9132 4.13151 12.2792C7.27267 12.2628 10.4158 12.2466 13.5565 12.195C13.5592 12.7498 13.5565 13.3046 13.5565 13.8594C10.5564 13.9292 7.48849 14.032 4.47933 14.081C4.28551 14.0842 4.31697 14.3474 4.50441 14.3496C7.54283 14.383 10.6745 14.2068 13.7224 14.135C13.7627 14.1312 13.7999 14.1133 13.826 14.0852C13.8522 14.057 13.8654 14.0208 13.8628 13.984C13.8628 13.3362 13.8603 12.6882 13.8652 12.0404C13.8609 12.0034 13.8411 11.9694 13.8098 11.9455C13.7786 11.9216 13.7383 11.9096 13.6976 11.912C10.4523 11.9138 7.20491 11.954 3.95969 11.9934C3.9182 11.9973 3.87998 12.0157 3.85307 12.0446C3.82616 12.0736 3.81264 12.1109 3.81537 12.1488C3.83341 12.8328 3.87169 13.5152 3.89765 14.1988C3.90139 14.3378 4.13129 14.3182 4.13151 14.1808Z" fill="#043F6D"/>
<path d="M3.94847 18.7522C7.22911 18.6358 10.6068 18.6222 13.8674 18.418C13.8913 18.4185 13.915 18.4141 13.9367 18.4053C13.9585 18.3964 13.9779 18.3833 13.9934 18.3668C14.0089 18.3503 14.0202 18.3308 14.0264 18.3099C14.0326 18.2889 14.0336 18.2669 14.0293 18.2456C13.9717 17.8228 13.9138 17.4 13.8533 16.9776C13.828 16.8022 13.5385 16.8622 13.5596 17.0344C13.6036 17.4014 13.6524 17.7682 13.7004 18.1344C10.5152 18.2566 7.30193 18.3392 4.13041 18.4316C4.13041 17.8582 4.12711 17.284 4.14493 16.7116C7.35143 16.6814 10.5029 16.6342 13.7446 16.6582C13.7759 16.6587 13.8061 16.6481 13.829 16.6286C13.8518 16.6092 13.8655 16.5825 13.867 16.5541C13.8686 16.5257 13.858 16.4979 13.8374 16.4765C13.8168 16.4551 13.7879 16.4418 13.7567 16.4394C10.5025 16.3032 7.23461 16.3632 3.96673 16.3692C3.9414 16.3679 3.91605 16.3713 3.89214 16.379C3.86824 16.3867 3.84624 16.3986 3.82743 16.4141C3.80861 16.4296 3.79335 16.4483 3.78252 16.4691C3.77169 16.49 3.76551 16.5126 3.76433 16.5356C3.79139 17.2182 3.78127 17.9032 3.78391 18.5866C3.78221 18.6282 3.79845 18.6688 3.82919 18.6998C3.85992 18.7307 3.90272 18.7495 3.94847 18.7522Z" fill="#043F6D"/>
<path d="M13.5974 22.7574C12.0222 22.7764 10.0183 22.748 8.40237 22.8174C8.26707 22.8232 8.27323 23.074 8.40589 23.076C9.86075 23.0986 12.0625 23.0332 13.7444 23.0654C13.9303 23.069 13.9389 22.9054 13.9171 22.7838C13.8085 22.1869 13.8026 21.5783 13.8997 20.9798C13.9042 20.9582 13.9033 20.936 13.8971 20.9148C13.8909 20.8935 13.8795 20.8739 13.8639 20.8571C13.8482 20.8404 13.8286 20.8271 13.8065 20.8182C13.7844 20.8093 13.7604 20.805 13.7363 20.8056C10.5357 20.8744 7.33427 20.982 4.13393 21.0286C4.0909 21.0313 4.05069 21.049 4.02173 21.078C3.99277 21.1071 3.97731 21.1452 3.97861 21.1844C3.97289 21.814 3.97421 22.4444 3.96937 23.0732C3.97237 23.1146 3.99295 23.1533 4.02678 23.1812C4.0606 23.2091 4.10502 23.2239 4.15065 23.2226C5.07465 23.1918 5.80219 23.1964 6.72641 23.1446C6.88041 23.136 6.86743 22.8834 6.71475 22.883C5.91446 22.8813 5.11418 22.8889 4.31411 22.9058C4.31081 22.3776 4.31015 21.8494 4.30619 21.3212C7.39103 21.2212 10.4783 21.1772 13.5638 21.0988C13.4916 21.6505 13.5029 22.2085 13.5974 22.7574Z" fill="#043F6D"/>
<path d="M21.0763 24.6222C21.222 24.6536 21.2616 24.441 21.1203 24.4034C19.5797 23.9572 18.2875 22.9884 17.5124 21.6984C15.7235 18.794 16.8304 14.9878 19.7366 13.057C22.3106 11.3468 27.84 11.3816 29.6229 14.177C29.7307 14.346 30.0108 14.2536 29.921 14.0738C28.5271 11.2808 22.8696 10.8808 20.0951 12.4208C16.8284 14.2348 15.3132 18.158 16.9316 21.3734C17.7456 22.991 19.2574 24.2306 21.0763 24.6222Z" fill="#043F6D"/>
<path d="M33.6524 25.2076C33.7083 24.7764 33.6586 23.6276 33.6606 22.9554C33.6606 22.7142 33.4115 22.8028 33.4025 22.9038C33.3496 23.6711 33.3474 24.4405 33.3959 25.208C33.4058 25.3226 33.6379 25.3208 33.6524 25.2076Z" fill="#043F6D"/>
<path d="M34.4414 37.0364C33.1282 36.8964 30.405 36.743 28.6367 36.7164C28.6367 35.7934 27.6656 30.5164 27.0476 30.075C26.4558 29.6522 15.2288 29.5734 14.7652 30.375C14.1558 31.4302 15.163 37.9674 15.7191 38.14C16.624 38.42 33.8227 38.3734 34.5731 38.32C34.9654 38.293 35.0213 37.0978 34.4414 37.0364ZM18.2309 30.7046C17.5788 30.7666 16.9549 30.8486 16.3046 30.9352C15.7416 31.0102 15.7018 31.1174 15.6406 31.6086C15.5631 32.1918 15.5259 32.7789 15.5293 33.3664C15.5293 33.4914 15.3293 33.5242 15.311 33.3926C15.2269 32.7184 15.2325 32.0375 15.3278 31.3646C15.3907 30.923 15.5698 30.7246 16.0538 30.6348C16.7694 30.5033 17.4999 30.4512 18.2293 30.4796C18.259 30.4835 18.286 30.497 18.3057 30.5175C18.3253 30.538 18.3362 30.5643 18.3364 30.5915C18.3366 30.6187 18.3261 30.6451 18.3067 30.6658C18.2873 30.6866 18.2604 30.7003 18.2309 30.7046ZM21.1054 35.1704C20.6401 35.2504 20.1361 35.0216 19.9546 34.3764C19.7968 33.8164 20.0866 33.3938 20.5983 33.2748C21.8237 32.99 22.2714 34.9678 21.1054 35.1704Z" fill="#043F6D"/>
<path d="M33.8258 21.818C31.7336 19.9334 32.9808 17.2912 31.6427 16.0126C31.3897 15.7646 31.048 15.6064 30.6786 15.5661C30.3091 15.5258 29.936 15.606 29.6256 15.7926C28.5949 14.2688 26.4925 13.9 24.7026 14.407C22.7519 14.9596 22.0529 17.1246 23.6189 17.8214C24.4395 18.1866 27.3204 18.2176 28.2211 18.059C28.2932 18.737 28.5721 19.3832 29.0265 19.9248C29.0731 19.9758 29.1383 20.0464 29.2157 19.9848C29.2994 19.9162 29.3979 19.8641 29.505 19.8319C29.612 19.7997 29.7252 19.7881 29.8374 19.7978C29.9496 19.8074 30.0584 19.8382 30.1569 19.8881C30.2553 19.938 30.3413 20.0059 30.4094 20.0876C30.472 20.1717 30.5157 20.2662 30.538 20.3657C30.5603 20.4652 30.5608 20.5677 30.5394 20.6674C30.518 20.767 30.4751 20.8619 30.4133 20.9464C30.3515 21.031 30.2719 21.1036 30.1791 21.1602C29.91 21.322 29.7182 21.2984 29.4168 21.2846C29.3224 21.2804 29.3048 21.3522 29.2984 21.4178C29.2054 22.3706 29.1022 23.4578 29.2621 24.4054C29.2662 24.4317 29.2815 24.4555 29.3046 24.4717C29.3277 24.488 29.3569 24.4954 29.386 24.4923C29.415 24.4893 29.4416 24.4761 29.4601 24.4555C29.4786 24.435 29.4875 24.4086 29.485 24.3822C29.4872 24.1254 29.4766 23.8686 29.4674 23.6116C30.9403 23.7614 32.8052 22.9782 33.8302 22.0828C33.9926 21.9426 33.8764 21.8636 33.8258 21.818ZM25.9014 15.2988C25.5423 15.2929 25.187 15.3663 24.8659 15.5126C24.5092 15.6682 23.9038 16.055 23.9445 16.4606C23.9566 16.5822 23.7643 16.6566 23.7144 16.5312C23.4735 15.9268 24.144 15.4546 24.5911 15.2328C24.9893 15.0352 25.4354 14.9311 25.8891 14.9298C26.4694 14.9304 26.2299 15.3114 25.9014 15.2988Z" fill="#043F6D"/>
</g>
<defs>
<clipPath id="clip0_20_153">
<rect width="44" height="40" fill="white"/>
</clipPath>
</defs>
</svg>
